<svg width="184" height="110" viewBox="0 0 184 110" fill="none" xmlns="http://www.w3.org/2000/svg">
    <g clip-path="url(#clip0_2_65)">
        <mask id="mask0_2_65" style="mask-type:luminance" maskUnits="userSpaceOnUse" x="0" y="0" width="184" height="110">
            <path d="M184 0H0V110H184V0Z" fill="white"/>
        </mask>
        <g mask="url(#mask0_2_65)">
            <g filter="url(#filter0_d_2_65)">
                <path d="M0 16.713C0 6.32085 13.8859 2.82428 18.8075 11.9771L31.1694 34.9672C32.9127 38.2092 36.296 40.2313 39.9769 40.2313H174C179.523 40.2313 184 44.7085 184 50.2313V92C184 97.5229 179.523 102 174 102H10C4.47715 102 0 97.5229 0 92V16.713Z" fill="#F9F7ED"/>
            </g>
            <path d="M33.5103 71H30.0785L30.2804 66.1551L30.2467 64.271L26.5794 64.2037L23.2822 64.271L23.2486 65.8523L23.3832 71H19.9514L20.1533 66.1551L19.9514 54.7832H23.4505L23.3159 61.4449L26.7813 61.5458L30.2131 61.4449L30.0785 54.7832H33.5776L33.3757 65.8523L33.5103 71ZM45.5508 54.5477C47.9284 54.5477 49.734 55.243 50.9676 56.6336C52.2013 58.0243 52.8181 60.0542 52.8181 62.7234C52.8181 65.3925 52.1452 67.4897 50.7994 69.015C49.476 70.5178 47.6256 71.2692 45.248 71.2692C42.8929 71.2692 41.0985 70.5626 39.8648 69.1495C38.6312 67.714 38.0144 65.6617 38.0144 62.9925C38.0144 60.3234 38.676 58.2486 39.9994 56.7682C41.3452 55.2879 43.1957 54.5477 45.5508 54.5477ZM45.4162 57.3065C44.0704 57.3065 43.0947 57.7327 42.4891 58.585C41.8835 59.415 41.5807 60.8393 41.5807 62.8579C41.5807 64.8766 41.8723 66.3458 42.4555 67.2654C43.0611 68.1626 44.048 68.6112 45.4162 68.6112C46.7844 68.6112 47.7601 68.1963 48.3433 67.3664C48.9489 66.514 49.2517 65.0785 49.2517 63.0598C49.2517 61.0187 48.9489 59.5495 48.3433 58.6523C47.7601 57.7551 46.7844 57.3065 45.4162 57.3065ZM59.6535 65.0112L57.7358 65.2804L57.3993 64.9439L57.1974 54.7832L57.5002 54.3794L60.1582 54.2112L60.5619 54.615L59.6535 65.0112ZM58.3414 67.6019C58.9021 67.6019 59.3283 67.7589 59.6199 68.0729C59.9115 68.3645 60.0573 68.7907 60.0573 69.3514C60.0573 69.8897 59.9002 70.3271 59.5862 70.6636C59.2722 71 58.8348 71.1682 58.2741 71.1682C57.7358 71.1682 57.3096 71.0224 56.9956 70.7308C56.704 70.4168 56.5582 69.9907 56.5582 69.4523C56.5582 68.914 56.7152 68.4766 57.0292 68.1402C57.3657 67.7813 57.8031 67.6019 58.3414 67.6019ZM81.6672 68.443L81.4317 71H71.2373L71.4392 66.1551L71.2373 54.7832H81.5327L81.7345 55.0523L81.499 57.6093L77.5962 57.4748H74.6691L74.6018 61.3776L77.428 61.4449L80.0523 61.3776L80.2542 61.6131L80.0186 64.1701L77.1588 64.1028L74.5682 64.1364L74.5345 65.8523L74.6018 68.3084L77.4616 68.3421L81.4654 68.1738L81.6672 68.443ZM89.4006 67.8374H89.6024L91.7221 61.3103L92.1594 59.2579H95.0529L91.1501 71H87.5165L84.2193 59.3589L87.3482 59.1907L87.651 61.1421L89.4006 67.8374ZM100.698 65.5832C100.833 67.714 101.864 68.7794 103.793 68.7794C104.892 68.7794 106.025 68.4654 107.191 67.8374L107.461 68.0393L107.023 70.4953C105.857 70.9888 104.679 71.2467 103.491 71.2692C101.629 71.2692 100.182 70.7308 99.1504 69.6542C98.1186 68.5776 97.6027 67.0972 97.6027 65.2131C97.6027 63.3065 98.1186 61.815 99.1504 60.7383C100.205 59.6393 101.539 59.0897 103.154 59.0897C104.769 59.0897 105.969 59.5047 106.754 60.3346C107.562 61.1421 107.965 62.2636 107.965 63.6991C107.965 64.1477 107.932 64.6075 107.864 65.0785L107.36 65.5495L100.698 65.5832ZM103.255 61.2766C102.605 61.2766 102.055 61.4897 101.606 61.9159C101.18 62.3421 100.9 62.9477 100.765 63.7327L105.005 63.5981L105.072 63.329C105.049 61.9607 104.444 61.2766 103.255 61.2766ZM119.224 63.6991C119.224 62.4654 118.697 61.8486 117.643 61.8486C116.88 61.8486 116.073 62.2075 115.22 62.9252V65.8523L115.389 71H112.024L112.192 66.1551L112.058 59.4935L115.254 59.2243V60.9402H115.422C116.387 60.0879 117.396 59.4822 118.45 59.1234C119.729 59.1234 120.693 59.415 121.344 59.9981C122.017 60.5813 122.342 61.4112 122.32 62.4879L122.252 65.8523L122.387 71H119.022L119.224 63.6991ZM131.889 68.5103C132.405 68.5103 132.955 68.3757 133.538 68.1065L133.807 68.3757L133.471 70.3271C132.641 70.7757 131.777 71.0449 130.88 71.1346C128.615 70.9103 127.471 69.8112 127.448 67.8374L127.583 65.7178V61.3776H126.001L125.867 61.243L126.035 59.3925H127.515V57.4411L130.577 56.4654L130.813 56.6673L130.712 59.3925H133.74L133.841 59.5607L133.706 61.3776H130.678L130.544 67.0299C130.544 67.5682 130.633 67.9495 130.813 68.1738C131.015 68.3981 131.373 68.5103 131.889 68.5103ZM141.085 59.0897C142.364 59.0673 143.508 59.2579 144.517 59.6617L144.08 62.1178L143.676 62.2523C142.667 61.6019 141.747 61.2766 140.917 61.2766C140.513 61.2766 140.188 61.3888 139.941 61.6131C139.717 61.815 139.605 62.0729 139.605 62.3869C139.605 62.7009 139.762 62.9701 140.076 63.1944C140.39 63.4187 140.883 63.6654 141.556 63.9346C142.229 64.2037 142.779 64.4729 143.205 64.7421C143.654 64.9888 144.035 65.3364 144.349 65.785C144.663 66.2112 144.82 66.7607 144.82 67.4336C144.82 68.1065 144.652 68.7346 144.315 69.3178C143.53 70.6187 142.128 71.2692 140.11 71.2692C138.898 71.2692 137.642 71.0112 136.341 70.4953L136.745 67.871L137.048 67.6692C137.564 68.1178 138.147 68.4766 138.797 68.7458C139.448 68.9925 140.009 69.1159 140.48 69.1159C140.951 69.1159 141.31 69.0037 141.556 68.7794C141.803 68.5551 141.926 68.286 141.926 67.972C141.926 67.6355 141.769 67.3551 141.455 67.1308C141.141 66.8841 140.648 66.6262 139.975 66.357C139.302 66.0654 138.753 65.7963 138.326 65.5495C137.25 64.9439 136.711 64.0579 136.711 62.8916C136.711 61.7252 137.115 60.8056 137.923 60.1327C138.753 59.4374 139.807 59.0897 141.085 59.0897Z" fill="black"/>
            <path d="M19.4219 90V79.7598H23.2773C24.2708 79.7598 25.0547 80.0332 25.6289 80.5801C26.2122 81.127 26.5039 81.8516 26.5039 82.7539C26.5039 83.6836 26.2077 84.4173 25.6152 84.9551C25.0228 85.4928 24.2435 85.7617 23.2773 85.7617H20.5156V90H19.4219ZM20.5156 84.8457H23.1133C23.8333 84.8457 24.3893 84.6725 24.7812 84.3262C25.1823 83.9707 25.3828 83.4466 25.3828 82.7539C25.3828 82.0794 25.1823 81.569 24.7812 81.2227C24.3893 80.8672 23.8242 80.6895 23.0859 80.6895H20.5156V84.8457ZM28.3086 90V79.377H29.3477V90H28.3086ZM32.2461 88.1133C32.2461 88.4596 32.3919 88.7559 32.6836 89.002C32.9753 89.2389 33.3763 89.3574 33.8867 89.3574C34.5339 89.3574 35.0853 89.1478 35.541 88.7285C36.0059 88.3092 36.2383 87.776 36.2383 87.1289V86.1035C35.8372 86.2038 35.1992 86.3223 34.3242 86.459C33.6133 86.5866 33.0892 86.7826 32.752 87.0469C32.4147 87.3112 32.2461 87.6667 32.2461 88.1133ZM31.1797 88.1953C31.1797 86.8281 32.237 85.9805 34.3516 85.6523C35.2995 85.4974 35.9284 85.3698 36.2383 85.2695V84.8457C36.2383 84.39 36.0742 84.0117 35.7461 83.7109C35.418 83.4102 34.9531 83.2598 34.3516 83.2598C33.9141 83.2598 33.4902 83.3646 33.0801 83.5742C32.679 83.7747 32.3372 84.0482 32.0547 84.3945L31.3711 83.8203C31.7357 83.401 32.1732 83.0592 32.6836 82.7949C33.2031 82.5306 33.75 82.3984 34.3242 82.3984C36.293 82.3984 37.2773 83.36 37.2773 85.2832V90H36.2656V88.7969C36.1198 89.1888 35.819 89.5306 35.3633 89.8223C34.9076 90.1048 34.3698 90.2461 33.75 90.2461C32.9388 90.2461 32.3053 90.0547 31.8496 89.6719C31.403 89.2891 31.1797 88.7969 31.1797 88.1953ZM39.3965 90V82.6445H40.4355V83.9023H40.4492C40.5586 83.5378 40.8275 83.196 41.2559 82.877C41.6842 82.5579 42.1947 82.3984 42.7871 82.3984C43.4707 82.3984 44.0312 82.6126 44.4688 83.041C44.9154 83.4694 45.1387 84.2031 45.1387 85.2422V90H44.0723V85.4199C44.0723 83.998 43.5618 83.2871 42.541 83.2871C41.9759 83.2871 41.4883 83.515 41.0781 83.9707C40.668 84.4264 40.4629 84.9733 40.4629 85.6113V90H39.3965ZM50.9902 90V79.7598H54.7637C55.7572 79.7598 56.5091 79.9967 57.0195 80.4707C57.5391 80.9447 57.7988 81.5827 57.7988 82.3848C57.7988 82.9316 57.6576 83.3965 57.375 83.7793C57.1016 84.153 56.7507 84.4355 56.3223 84.627C56.8418 84.7819 57.2793 85.0827 57.6348 85.5293C57.9993 85.9759 58.1816 86.5137 58.1816 87.1426C58.1816 87.9264 57.9219 88.6009 57.4023 89.166C56.8919 89.722 56.1764 90 55.2559 90H50.9902ZM52.084 89.0703H54.9824C55.5749 89.0703 56.0671 88.9017 56.459 88.5645C56.86 88.2181 57.0605 87.7487 57.0605 87.1562C57.0605 86.5911 56.8646 86.1217 56.4727 85.748C56.0898 85.3743 55.5749 85.1875 54.9277 85.1875H52.084V89.0703ZM52.084 84.2715H54.5723C55.1829 84.2715 55.6842 84.1211 56.0762 83.8203C56.4772 83.5195 56.6777 83.0684 56.6777 82.4668C56.6777 81.9382 56.5137 81.5098 56.1855 81.1816C55.8665 80.8535 55.347 80.6895 54.627 80.6895H52.084V84.2715ZM59.4668 86.2676C59.4668 85.1191 59.7767 84.1895 60.3965 83.4785C61.0163 82.7585 61.8184 82.3984 62.8027 82.3984C63.8053 82.3984 64.5938 82.7493 65.168 83.4512C65.7422 84.1439 66.0293 85.0326 66.0293 86.1172C66.0293 86.2448 66.0202 86.4271 66.002 86.6641H60.5332C60.5332 87.4023 60.7383 88.0358 61.1484 88.5645C61.5586 89.0931 62.1283 89.3574 62.8574 89.3574C63.3314 89.3574 63.7507 89.248 64.1152 89.0293C64.4798 88.8014 64.7624 88.5007 64.9629 88.127L65.8652 88.4004C65.6374 88.9382 65.2682 89.3802 64.7578 89.7266C64.2474 90.0729 63.6139 90.2461 62.8574 90.2461C61.8366 90.2461 61.0163 89.8815 60.3965 89.1523C59.7767 88.4232 59.4668 87.4616 59.4668 86.2676ZM60.5605 85.8574H64.9629C64.9629 85.1374 64.7669 84.5312 64.375 84.0391C63.9831 83.5378 63.459 83.2871 62.8027 83.2871C62.1374 83.2871 61.5996 83.5423 61.1895 84.0527C60.7884 84.5632 60.5788 85.1647 60.5605 85.8574ZM66.877 83.5332V82.6445H68.1621V80.293H69.2285V82.6445H71.1699V83.5332H69.2285V87.8398C69.2285 88.2956 69.3151 88.6191 69.4883 88.8105C69.6615 89.002 69.9395 89.0977 70.3223 89.0977H71.1699V90H70.1855C68.8366 90 68.1621 89.3118 68.1621 87.9355V83.5332H66.877ZM71.8672 83.5332V82.6445H73.1523V80.293H74.2188V82.6445H76.1602V83.5332H74.2188V87.8398C74.2188 88.2956 74.3053 88.6191 74.4785 88.8105C74.6517 89.002 74.9297 89.0977 75.3125 89.0977H76.1602V90H75.1758C73.8268 90 73.1523 89.3118 73.1523 87.9355V83.5332H71.8672ZM77.1855 86.2676C77.1855 85.1191 77.4954 84.1895 78.1152 83.4785C78.735 82.7585 79.5371 82.3984 80.5215 82.3984C81.5241 82.3984 82.3125 82.7493 82.8867 83.4512C83.4609 84.1439 83.748 85.0326 83.748 86.1172C83.748 86.2448 83.7389 86.4271 83.7207 86.6641H78.252C78.252 87.4023 78.457 88.0358 78.8672 88.5645C79.2773 89.0931 79.847 89.3574 80.5762 89.3574C81.0501 89.3574 81.4694 89.248 81.834 89.0293C82.1986 88.8014 82.4811 88.5007 82.6816 88.127L83.584 88.4004C83.3561 88.9382 82.987 89.3802 82.4766 89.7266C81.9661 90.0729 81.3327 90.2461 80.5762 90.2461C79.5553 90.2461 78.735 89.8815 78.1152 89.1523C77.4954 88.4232 77.1855 87.4616 77.1855 86.2676ZM78.2793 85.8574H82.6816C82.6816 85.1374 82.4857 84.5312 82.0938 84.0391C81.7018 83.5378 81.1777 83.2871 80.5215 83.2871C79.8561 83.2871 79.3184 83.5423 78.9082 84.0527C78.5072 84.5632 78.2975 85.1647 78.2793 85.8574ZM85.416 90V82.6445H86.4277V83.7109C86.5736 83.3828 86.8151 83.082 87.1523 82.8086C87.4896 82.5352 87.9225 82.3984 88.4512 82.3984C88.8431 82.3984 89.1895 82.4622 89.4902 82.5898V83.5469C89.1621 83.4193 88.8158 83.3555 88.4512 83.3555C87.8314 83.3555 87.3483 83.5879 87.002 84.0527C86.6556 84.5176 86.4824 85.1328 86.4824 85.8984V90H85.416ZM90.1328 92.3789L91.2539 88.373H92.7715L90.9941 92.3789H90.1328ZM98.2266 88.0723L99.2383 87.7168C99.849 88.7741 100.797 89.3027 102.082 89.3027C102.793 89.3027 103.372 89.1296 103.818 88.7832C104.265 88.4368 104.488 87.9629 104.488 87.3613C104.488 87.0605 104.424 86.7962 104.297 86.5684C104.169 86.3314 103.964 86.1263 103.682 85.9531C103.408 85.7799 103.153 85.6432 102.916 85.543C102.679 85.4427 102.355 85.3242 101.945 85.1875C101.617 85.0781 101.385 85.0007 101.248 84.9551C101.111 84.9095 100.893 84.8275 100.592 84.709C100.3 84.5905 100.081 84.4857 99.9355 84.3945C99.7988 84.3034 99.6257 84.1803 99.416 84.0254C99.2064 83.8613 99.0514 83.6973 98.9512 83.5332C98.86 83.3691 98.7734 83.1732 98.6914 82.9453C98.6185 82.7083 98.582 82.4577 98.582 82.1934C98.582 81.3822 98.8919 80.735 99.5117 80.252C100.132 79.7598 100.961 79.5137 102 79.5137C102.793 79.5137 103.481 79.696 104.064 80.0605C104.657 80.4251 105.081 80.8809 105.336 81.4277L104.406 81.7559C103.868 80.8809 103.057 80.4434 101.973 80.4434C101.262 80.4434 100.706 80.6029 100.305 80.9219C99.9036 81.2409 99.7031 81.6647 99.7031 82.1934C99.7031 82.4303 99.7578 82.6536 99.8672 82.8633C99.9766 83.0638 100.095 83.2279 100.223 83.3555C100.359 83.474 100.574 83.6061 100.865 83.752C101.166 83.8887 101.398 83.9889 101.562 84.0527C101.736 84.1074 102.014 84.1986 102.396 84.3262C102.488 84.3535 102.556 84.3763 102.602 84.3945C103.048 84.5404 103.422 84.6816 103.723 84.8184C104.023 84.9551 104.333 85.1374 104.652 85.3652C104.971 85.5931 105.208 85.8711 105.363 86.1992C105.527 86.5182 105.609 86.8919 105.609 87.3203C105.609 88.2409 105.286 88.9609 104.639 89.4805C104.001 89.9909 103.139 90.2461 102.055 90.2461C101.125 90.2461 100.337 90.0501 99.6895 89.6582C99.0423 89.2663 98.5547 88.7376 98.2266 88.0723ZM106.443 83.5332V82.6445H107.729V80.293H108.795V82.6445H110.736V83.5332H108.795V87.8398C108.795 88.2956 108.882 88.6191 109.055 88.8105C109.228 89.002 109.506 89.0977 109.889 89.0977H110.736V90H109.752C108.403 90 107.729 89.3118 107.729 87.9355V83.5332H106.443ZM112.254 90V82.6445H113.266V83.7109C113.411 83.3828 113.653 83.082 113.99 82.8086C114.327 82.5352 114.76 82.3984 115.289 82.3984C115.681 82.3984 116.027 82.4622 116.328 82.5898V83.5469C116 83.4193 115.654 83.3555 115.289 83.3555C114.669 83.3555 114.186 83.5879 113.84 84.0527C113.493 84.5176 113.32 85.1328 113.32 85.8984V90H112.254ZM116.889 86.2676C116.889 85.1191 117.199 84.1895 117.818 83.4785C118.438 82.7585 119.24 82.3984 120.225 82.3984C121.227 82.3984 122.016 82.7493 122.59 83.4512C123.164 84.1439 123.451 85.0326 123.451 86.1172C123.451 86.2448 123.442 86.4271 123.424 86.6641H117.955C117.955 87.4023 118.16 88.0358 118.57 88.5645C118.98 89.0931 119.55 89.3574 120.279 89.3574C120.753 89.3574 121.173 89.248 121.537 89.0293C121.902 88.8014 122.184 88.5007 122.385 88.127L123.287 88.4004C123.059 88.9382 122.69 89.3802 122.18 89.7266C121.669 90.0729 121.036 90.2461 120.279 90.2461C119.258 90.2461 118.438 89.8815 117.818 89.1523C117.199 88.4232 116.889 87.4616 116.889 86.2676ZM117.982 85.8574H122.385C122.385 85.1374 122.189 84.5312 121.797 84.0391C121.405 83.5378 120.881 83.2871 120.225 83.2871C119.559 83.2871 119.021 83.5423 118.611 84.0527C118.21 84.5632 118.001 85.1647 117.982 85.8574ZM124.518 88.5508L125.311 88.0859C125.848 88.9336 126.577 89.3574 127.498 89.3574C128.054 89.3574 128.496 89.2572 128.824 89.0566C129.161 88.8561 129.33 88.5645 129.33 88.1816C129.33 88.0176 129.289 87.8717 129.207 87.7441C129.125 87.6074 129.034 87.498 128.934 87.416C128.842 87.3249 128.674 87.2292 128.428 87.1289C128.182 87.0195 127.977 86.9421 127.812 86.8965C127.658 86.8418 127.398 86.7552 127.033 86.6367C126.714 86.5365 126.441 86.4362 126.213 86.3359C125.985 86.2357 125.748 86.1035 125.502 85.9395C125.256 85.7663 125.064 85.5566 124.928 85.3105C124.8 85.0645 124.736 84.7819 124.736 84.4629C124.736 83.8522 124.982 83.3555 125.475 82.9727C125.967 82.5898 126.641 82.3984 127.498 82.3984C128.1 82.3984 128.651 82.5579 129.152 82.877C129.654 83.196 130.014 83.5697 130.232 83.998L129.521 84.4629C129.33 84.1439 129.052 83.8704 128.688 83.6426C128.332 83.4056 127.936 83.2871 127.498 83.2871C126.942 83.2871 126.518 83.3965 126.227 83.6152C125.944 83.8249 125.803 84.112 125.803 84.4766C125.803 84.6862 125.857 84.8776 125.967 85.0508C126.076 85.2148 126.24 85.3607 126.459 85.4883C126.687 85.6068 126.892 85.7025 127.074 85.7754C127.266 85.8392 127.516 85.9212 127.826 86.0215C128.09 86.1035 128.323 86.181 128.523 86.2539C128.733 86.3268 128.961 86.4271 129.207 86.5547C129.453 86.6823 129.658 86.819 129.822 86.9648C129.986 87.1016 130.123 87.2793 130.232 87.498C130.342 87.7077 130.396 87.9355 130.396 88.1816C130.396 88.765 130.137 89.2572 129.617 89.6582C129.107 90.0501 128.4 90.2461 127.498 90.2461C126.842 90.2461 126.258 90.1003 125.748 89.8086C125.238 89.5078 124.827 89.0885 124.518 88.5508ZM131.367 88.5508L132.16 88.0859C132.698 88.9336 133.427 89.3574 134.348 89.3574C134.904 89.3574 135.346 89.2572 135.674 89.0566C136.011 88.8561 136.18 88.5645 136.18 88.1816C136.18 88.0176 136.139 87.8717 136.057 87.7441C135.975 87.6074 135.883 87.498 135.783 87.416C135.692 87.3249 135.523 87.2292 135.277 87.1289C135.031 87.0195 134.826 86.9421 134.662 86.8965C134.507 86.8418 134.247 86.7552 133.883 86.6367C133.564 86.5365 133.29 86.4362 133.062 86.3359C132.835 86.2357 132.598 86.1035 132.352 85.9395C132.105 85.7663 131.914 85.5566 131.777 85.3105C131.65 85.0645 131.586 84.7819 131.586 84.4629C131.586 83.8522 131.832 83.3555 132.324 82.9727C132.816 82.5898 133.491 82.3984 134.348 82.3984C134.949 82.3984 135.501 82.5579 136.002 82.877C136.503 83.196 136.863 83.5697 137.082 83.998L136.371 84.4629C136.18 84.1439 135.902 83.8704 135.537 83.6426C135.182 83.4056 134.785 83.2871 134.348 83.2871C133.792 83.2871 133.368 83.3965 133.076 83.6152C132.794 83.8249 132.652 84.112 132.652 84.4766C132.652 84.6862 132.707 84.8776 132.816 85.0508C132.926 85.2148 133.09 85.3607 133.309 85.4883C133.536 85.6068 133.742 85.7025 133.924 85.7754C134.115 85.8392 134.366 85.9212 134.676 86.0215C134.94 86.1035 135.173 86.181 135.373 86.2539C135.583 86.3268 135.811 86.4271 136.057 86.5547C136.303 86.6823 136.508 86.819 136.672 86.9648C136.836 87.1016 136.973 87.2793 137.082 87.498C137.191 87.7077 137.246 87.9355 137.246 88.1816C137.246 88.765 136.986 89.2572 136.467 89.6582C135.956 90.0501 135.25 90.2461 134.348 90.2461C133.691 90.2461 133.108 90.1003 132.598 89.8086C132.087 89.5078 131.677 89.0885 131.367 88.5508ZM142.564 90V79.7598H143.658V89.0703H148.525V90H142.564ZM148.977 86.2676C148.977 85.1191 149.286 84.1895 149.906 83.4785C150.526 82.7585 151.328 82.3984 152.312 82.3984C153.315 82.3984 154.104 82.7493 154.678 83.4512C155.252 84.1439 155.539 85.0326 155.539 86.1172C155.539 86.2448 155.53 86.4271 155.512 86.6641H150.043C150.043 87.4023 150.248 88.0358 150.658 88.5645C151.068 89.0931 151.638 89.3574 152.367 89.3574C152.841 89.3574 153.26 89.248 153.625 89.0293C153.99 88.8014 154.272 88.5007 154.473 88.127L155.375 88.4004C155.147 88.9382 154.778 89.3802 154.268 89.7266C153.757 90.0729 153.124 90.2461 152.367 90.2461C151.346 90.2461 150.526 89.8815 149.906 89.1523C149.286 88.4232 148.977 87.4616 148.977 86.2676ZM150.07 85.8574H154.473C154.473 85.1374 154.277 84.5312 153.885 84.0391C153.493 83.5378 152.969 83.2871 152.312 83.2871C151.647 83.2871 151.109 83.5423 150.699 84.0527C150.298 84.5632 150.089 85.1647 150.07 85.8574ZM156.605 88.5508L157.398 88.0859C157.936 88.9336 158.665 89.3574 159.586 89.3574C160.142 89.3574 160.584 89.2572 160.912 89.0566C161.249 88.8561 161.418 88.5645 161.418 88.1816C161.418 88.0176 161.377 87.8717 161.295 87.7441C161.213 87.6074 161.122 87.498 161.021 87.416C160.93 87.3249 160.762 87.2292 160.516 87.1289C160.27 87.0195 160.064 86.9421 159.9 86.8965C159.745 86.8418 159.486 86.7552 159.121 86.6367C158.802 86.5365 158.529 86.4362 158.301 86.3359C158.073 86.2357 157.836 86.1035 157.59 85.9395C157.344 85.7663 157.152 85.5566 157.016 85.3105C156.888 85.0645 156.824 84.7819 156.824 84.4629C156.824 83.8522 157.07 83.3555 157.562 82.9727C158.055 82.5898 158.729 82.3984 159.586 82.3984C160.188 82.3984 160.739 82.5579 161.24 82.877C161.742 83.196 162.102 83.5697 162.32 83.998L161.609 84.4629C161.418 84.1439 161.14 83.8704 160.775 83.6426C160.42 83.4056 160.023 83.2871 159.586 83.2871C159.03 83.2871 158.606 83.3965 158.314 83.6152C158.032 83.8249 157.891 84.112 157.891 84.4766C157.891 84.6862 157.945 84.8776 158.055 85.0508C158.164 85.2148 158.328 85.3607 158.547 85.4883C158.775 85.6068 158.98 85.7025 159.162 85.7754C159.354 85.8392 159.604 85.9212 159.914 86.0215C160.178 86.1035 160.411 86.181 160.611 86.2539C160.821 86.3268 161.049 86.4271 161.295 86.5547C161.541 86.6823 161.746 86.819 161.91 86.9648C162.074 87.1016 162.211 87.2793 162.32 87.498C162.43 87.7077 162.484 87.9355 162.484 88.1816C162.484 88.765 162.225 89.2572 161.705 89.6582C161.195 90.0501 160.488 90.2461 159.586 90.2461C158.93 90.2461 158.346 90.1003 157.836 89.8086C157.326 89.5078 156.915 89.0885 156.605 88.5508ZM163.455 88.5508L164.248 88.0859C164.786 88.9336 165.515 89.3574 166.436 89.3574C166.992 89.3574 167.434 89.2572 167.762 89.0566C168.099 88.8561 168.268 88.5645 168.268 88.1816C168.268 88.0176 168.227 87.8717 168.145 87.7441C168.062 87.6074 167.971 87.498 167.871 87.416C167.78 87.3249 167.611 87.2292 167.365 87.1289C167.119 87.0195 166.914 86.9421 166.75 86.8965C166.595 86.8418 166.335 86.7552 165.971 86.6367C165.652 86.5365 165.378 86.4362 165.15 86.3359C164.923 86.2357 164.686 86.1035 164.439 85.9395C164.193 85.7663 164.002 85.5566 163.865 85.3105C163.738 85.0645 163.674 84.7819 163.674 84.4629C163.674 83.8522 163.92 83.3555 164.412 82.9727C164.904 82.5898 165.579 82.3984 166.436 82.3984C167.037 82.3984 167.589 82.5579 168.09 82.877C168.591 83.196 168.951 83.5697 169.17 83.998L168.459 84.4629C168.268 84.1439 167.99 83.8704 167.625 83.6426C167.27 83.4056 166.873 83.2871 166.436 83.2871C165.88 83.2871 165.456 83.3965 165.164 83.6152C164.882 83.8249 164.74 84.112 164.74 84.4766C164.74 84.6862 164.795 84.8776 164.904 85.0508C165.014 85.2148 165.178 85.3607 165.396 85.4883C165.624 85.6068 165.829 85.7025 166.012 85.7754C166.203 85.8392 166.454 85.9212 166.764 86.0215C167.028 86.1035 167.26 86.181 167.461 86.2539C167.671 86.3268 167.898 86.4271 168.145 86.5547C168.391 86.6823 168.596 86.819 168.76 86.9648C168.924 87.1016 169.061 87.2793 169.17 87.498C169.279 87.7077 169.334 87.9355 169.334 88.1816C169.334 88.765 169.074 89.2572 168.555 89.6582C168.044 90.0501 167.338 90.2461 166.436 90.2461C165.779 90.2461 165.196 90.1003 164.686 89.8086C164.175 89.5078 163.765 89.0885 163.455 88.5508ZM171.357 90V88.373H173.08V90H171.357Z" fill="black"/>
        </g>
    </g>
    <defs>
        <filter id="filter0_d_2_65" x="-4" y="6.69702" width="192" height="103.303" filterUnits="userSpaceOnUse" color-interpolation-filters="sRGB">
            <feFlood flood-opacity="0" result="BackgroundImageFix"/>
            <feColorMatrix in="SourceAlpha" type="matrix" values="0 0 0 0 0 0 0 0 0 0 0 0 0 0 0 0 0 0 127 0" result="hardAlpha"/>
            <feOffset dy="4"/>
            <feGaussianBlur stdDeviation="2"/>
            <feComposite in2="hardAlpha" operator="out"/>
            <feColorMatrix type="matrix" values="0 0 0 0 0 0 0 0 0 0 0 0 0 0 0 0 0 0 0.25 0"/>
            <feBlend mode="normal" in2="BackgroundImageFix" result="effect1_dropShadow_2_65"/>
            <feBlend mode="normal" in="SourceGraphic" in2="effect1_dropShadow_2_65" result="shape"/>
        </filter>
        <clipPath id="clip0_2_65">
            <rect width="184" height="110" fill="white"/>
        </clipPath>
    </defs>
</svg>
