<svg width="22" height="32" viewBox="0 0 22 32" fill="none" xmlns="http://www.w3.org/2000/svg">
<path d="M21.6667 5.33333C21.6667 2.4 19.2667 0 16.3333 0H5.66667C2.73334 0 0.333336 2.4 0.333336 5.33333V26.6667C0.333336 29.6 2.73334 32 5.66667 32H16.3333C19.2667 32 21.6667 29.6 21.6667 26.6667V5.33333ZM12.3333 29.3333H9.66667C8.86667 29.3333 8.33334 28.8 8.33334 28C8.33334 27.2 8.86667 26.6667 9.66667 26.6667H12.3333C13.1333 26.6667 13.6667 27.2 13.6667 28C13.6667 28.8 13.1333 29.3333 12.3333 29.3333ZM19 22.6667C19 23.4667 18.4667 24 17.6667 24H4.33334C3.53334 24 3 23.4667 3 22.6667V6.66667C3 5.86667 3.53334 5.33333 4.33334 5.33333H17.6667C18.4667 5.33333 19 5.86667 19 6.66667V22.6667Z" fill="#B7CEFF"/>
</svg>
