<svg width="35" height="41" viewBox="0 0 35 41" fill="none" xmlns="http://www.w3.org/2000/svg">
<path fill-rule="evenodd" clip-rule="evenodd" d="M4.06165 10.4149C4.78814 10.3882 6.18905 10.3367 9.26477 17.5134C10.3488 15.5424 12.9111 10.2207 11.9256 2.9281C11.892 2.70968 11.8527 2.50273 11.8154 2.30674C11.6342 1.35313 11.5023 0.659212 12.3198 0.168725C13.2813 -0.408208 14.5244 0.609799 15.5911 1.48346C15.6177 1.50521 15.6441 1.52687 15.6705 1.54841C15.7273 1.59492 15.7958 1.65009 15.875 1.71391C17.3066 2.8672 22.2415 6.84272 25.2297 13.4728C25.9196 12.4873 26.5109 11.0092 26.5109 10.4178C26.5109 10.2675 26.4726 9.97052 26.4253 9.60316C26.2866 8.52593 26.0699 6.84329 26.5109 6.47585C27.1022 5.9831 28.0876 5.68746 28.6789 6.27875C28.6979 6.29775 28.7212 6.32063 28.7485 6.34744C29.5704 7.15498 34.0323 11.5388 34.9861 21.5539C35.0846 24.5103 34.789 31.6059 29.763 36.2377C29.5897 36.3637 29.4187 36.4888 29.2492 36.6129C26.2366 38.8177 23.6954 40.6776 17.4443 40.7709C10.8416 40.8695 2.95763 38.1101 0.888103 31.2117C-0.195936 28.1566 -0.590133 24.2147 1.4794 19.2872C1.97214 17.5134 2.46489 15.6409 2.76054 13.4728C2.77151 13.2863 2.78004 13.1084 2.78817 12.9388C2.85302 11.5854 2.89219 10.7682 3.94312 10.4178C3.98054 10.4178 4.01999 10.4164 4.06165 10.4149ZM12.6155 24.2147C13.2067 24.806 13.3053 25.1016 13.4038 25.4958C13.5024 25.89 14.685 30.2262 16.4589 30.0291C17.2473 29.9305 19.711 28.4523 19.9081 22.7365C19.9081 21.5539 20.2037 20.6669 20.795 20.5684C21.3863 20.4698 22.0762 20.4698 22.5689 21.1597C23.0617 21.8495 24.8355 24.5104 24.737 27.861C24.737 28.6494 24.6384 34.3653 21.1892 36.6319C20.6965 37.0261 19.4153 38.0116 17.6415 38.0116C15.8676 38.0116 11.4329 36.7305 10.3488 30.6204C10.1517 29.5364 10.0532 25.8901 10.6445 24.9046C10.8416 24.5104 11.4329 23.8205 12.6155 24.2147Z" fill="#FF60C3"/>
</svg>
