<svg width="40" height="40" viewBox="0 0 40 40" fill="none" xmlns="http://www.w3.org/2000/svg">
<path d="M20 27.5C18.7086 27.5 17.4172 27.0764 16.3156 26.218L0 13.5312V31.25C0 33.3203 1.67891 35 3.75 35H36.25C38.3211 35 40 33.3211 40 31.25V13.5312L23.6875 26.2266C22.5859 27.0781 21.2891 27.5 20 27.5ZM1.27266 11.3516L17.8508 24.25C19.1156 25.2344 20.8875 25.2344 22.1523 24.25L38.7305 11.3516C39.4609 10.7266 40 9.76562 40 8.75C40 6.67891 38.3203 5 36.25 5H3.75C1.67891 5 0 6.67891 0 8.75C0 9.76562 0.469531 10.7266 1.27266 11.3516Z" fill="black"/>
</svg>
