<svg width="40" height="40" viewBox="0 0 40 40" fill="none" xmlns="http://www.w3.org/2000/svg">
<g clip-path="url(#clip0_108_7116)">
<path d="M20 2.5C16.3545 2.50414 12.8596 3.95412 10.2818 6.53185C7.70412 9.10958 6.25414 12.6045 6.25 16.25C6.25 28.0156 18.75 36.9062 19.2812 37.2812C19.4942 37.423 19.7442 37.4986 20 37.4986C20.2558 37.4986 20.5058 37.423 20.7188 37.2812C21.25 36.9062 33.75 28.0156 33.75 16.25C33.7459 12.6045 32.2959 9.10958 29.7182 6.53185C27.1404 3.95412 23.6455 2.50414 20 2.5ZM20 11.25C20.9889 11.25 21.9556 11.5432 22.7779 12.0927C23.6001 12.6421 24.241 13.423 24.6194 14.3366C24.9978 15.2502 25.0969 16.2555 24.9039 17.2255C24.711 18.1954 24.2348 19.0863 23.5355 19.7855C22.8363 20.4848 21.9454 20.961 20.9755 21.1539C20.0055 21.3469 19.0002 21.2478 18.0866 20.8694C17.173 20.491 16.3921 19.8501 15.8427 19.0278C15.2932 18.2056 15 17.2389 15 16.25C15 14.9239 15.5268 13.6521 16.4645 12.7145C17.4021 11.7768 18.6739 11.25 20 11.25Z" fill="black"/>
</g>
<defs>
<clipPath id="clip0_108_7116">
<rect width="40" height="40" fill="white"/>
</clipPath>
</defs>
</svg>
