<svg width="72" height="72" viewBox="0 0 72 72" fill="none" xmlns="http://www.w3.org/2000/svg">
<path d="M33.43 6.23932L30.2162 3.99375C29.221 3.29831 28.9791 1.92944 29.676 0.936285C30.373 -0.0568689 31.7448 -0.298214 32.74 0.397227L39.9276 5.41949L39.9484 5.43385C40.4354 5.77412 40.742 6.27561 40.8466 6.81543C40.9557 7.37895 40.8447 7.98424 40.4887 8.49152L40.4738 8.51243L35.4411 15.6844C34.7441 16.6775 33.3723 16.9189 32.377 16.2234C31.3818 15.528 31.1399 14.1591 31.8368 13.166L33.617 10.6292C18.9366 11.8376 7.4 24.1096 7.4 39.0705C7.4 54.8321 20.2047 67.6094 36 67.6094C51.7953 67.6094 64.6 54.8321 64.6 39.0705C64.6 37.858 65.585 36.8752 66.8 36.8752C68.015 36.8752 69 37.858 69 39.0705C69 57.2569 54.2254 72 36 72C17.7746 72 3 57.2569 3 39.0705C3 21.747 16.4057 7.54789 33.43 6.23932Z" fill="#115EFB"/>
<path d="M39.0118 38.9861H33.7483V31.0171H39.0118C40.5364 31.0171 41.6496 31.3914 42.3514 32.14C43.0532 32.8645 43.4041 33.8304 43.4041 35.0378C43.4041 36.3418 43.0169 37.3319 42.2425 38.0081C41.4923 38.6601 40.4154 38.9861 39.0118 38.9861Z" fill="#115EFB"/>
<path fill-rule="evenodd" clip-rule="evenodd" d="M36 61.0236C48.1503 61.0236 58 51.1949 58 39.0706C58 26.9463 48.1503 17.1176 36 17.1176C23.8497 17.1176 14 26.9463 14 39.0706C14 51.1949 23.8497 61.0236 36 61.0236ZM28.8478 52.0986C29.0172 52.2677 29.235 52.3522 29.5012 52.3522H32.9134C33.1796 52.3522 33.3974 52.2677 33.5668 52.0986C33.7362 51.9296 33.8209 51.7243 33.8209 51.4828V47.4984H39.7378C40.004 47.4984 40.2097 47.4138 40.3549 47.2448C40.5243 47.0758 40.609 46.8705 40.609 46.629V45.5061C40.609 45.2646 40.5243 45.0594 40.3549 44.8903C40.2097 44.7213 40.004 44.6368 39.7378 44.6368H33.8209V42.717H39.1933C41.1051 42.717 42.7628 42.4393 44.1664 41.8839C45.57 41.3043 46.659 40.4591 47.4334 39.3483C48.2078 38.2133 48.595 36.7765 48.595 35.0378C48.595 33.2508 48.2078 31.7657 47.4334 30.5825C46.659 29.375 45.57 28.4816 44.1664 27.902C42.7628 27.2983 41.1051 26.9964 39.1933 26.9964H29.5012C29.235 26.9964 29.0172 27.0809 28.8478 27.25C28.7026 27.419 28.63 27.6364 28.63 27.902V38.9861H25.8712C25.6292 38.9861 25.4235 39.0706 25.2541 39.2396C25.0847 39.3845 25 39.5898 25 39.8554V41.8114C25 42.0771 25.0847 42.2944 25.2541 42.4634C25.4235 42.6325 25.6292 42.717 25.8712 42.717H28.63V44.6368H25.8712C25.6292 44.6368 25.4235 44.7213 25.2541 44.8903C25.0847 45.0594 25 45.2646 25 45.5061V46.629C25 46.8705 25.0847 47.0758 25.2541 47.2448C25.4235 47.4138 25.6292 47.4984 25.8712 47.4984H28.63V51.4828C28.63 51.7243 28.7026 51.9296 28.8478 52.0986Z" fill="#115EFB"/>
</svg>
