<svg width="48" height="48" viewBox="0 0 48 48" fill="none" xmlns="http://www.w3.org/2000/svg">
<path d="M20.6271 46.7524C20.4179 46.7525 20.2153 46.6797 20.0539 46.5466C19.8926 46.4135 19.7827 46.2283 19.743 46.023C17.1839 32.6827 15.3617 30.8604 2.02061 28.2984C1.81517 28.259 1.62987 28.1493 1.49659 27.9881C1.36332 27.8269 1.29041 27.6242 1.29041 27.4151C1.29041 27.2059 1.36332 27.0033 1.49659 26.8421C1.62987 26.6808 1.81517 26.5711 2.02061 26.5318C15.3617 23.9712 17.184 22.1504 19.743 8.80858C19.7827 8.60324 19.8927 8.41813 20.054 8.28502C20.2153 8.15191 20.4179 8.0791 20.6271 8.0791C20.8362 8.0791 21.0388 8.15191 21.2001 8.28502C21.3614 8.41813 21.4714 8.60324 21.5111 8.80858C24.0709 22.1504 25.8932 23.9712 39.2342 26.5317C39.4397 26.5711 39.625 26.6808 39.7583 26.842C39.8915 27.0032 39.9644 27.2059 39.9644 27.415C39.9644 27.6242 39.8915 27.8268 39.7583 27.9881C39.625 28.1493 39.4397 28.259 39.2342 28.2983C25.8932 30.8603 24.0709 32.6826 21.5111 46.0229C21.4714 46.2283 21.3615 46.4134 21.2002 46.5466C21.0389 46.6797 20.8362 46.7525 20.6271 46.7524Z" fill="#00E398"/>
<path d="M45.2438 8.09521C40.5431 7.19287 40.0289 6.6787 39.1266 1.97801C39.0869 1.77268 38.977 1.58756 38.8156 1.45445C38.6543 1.32134 38.4517 1.24854 38.2426 1.24854C38.0334 1.24854 37.8308 1.32134 37.6695 1.45445C37.5082 1.58756 37.3982 1.77268 37.3585 1.97801C36.4569 6.6787 35.9428 7.19287 31.2421 8.09521C31.0366 8.13454 30.8513 8.24426 30.718 8.40548C30.5848 8.5667 30.5118 8.76933 30.5118 8.97851C30.5118 9.18768 30.5848 9.39032 30.718 9.55154C30.8513 9.71275 31.0366 9.82247 31.2421 9.8618C35.942 10.7642 36.4569 11.2783 37.3585 15.979C37.3982 16.1843 37.5082 16.3695 37.6695 16.5026C37.8308 16.6357 38.0334 16.7085 38.2426 16.7085C38.4517 16.7085 38.6543 16.6357 38.8156 16.5026C38.977 16.3695 39.0869 16.1843 39.1266 15.979C40.0289 11.2783 40.5438 10.7642 45.2438 9.8618C45.4492 9.82247 45.6345 9.71275 45.7678 9.55154C45.9011 9.39032 45.974 9.18768 45.974 8.97851C45.974 8.76933 45.9011 8.5667 45.7678 8.40548C45.6345 8.24426 45.4492 8.13454 45.2438 8.09521Z" fill="#00E398"/>
<path d="M12.5277 13.4287C9.48761 12.845 9.15508 12.5124 8.5715 9.47185C8.54583 9.33903 8.47472 9.21929 8.37039 9.13319C8.26607 9.04709 8.13502 9 7.99976 9C7.8645 9 7.73346 9.04709 7.62913 9.13319C7.52481 9.21929 7.4537 9.33903 7.42802 9.47185C6.84492 12.5124 6.51239 12.845 3.47227 13.4287C3.3394 13.4541 3.21955 13.5251 3.13336 13.6293C3.04716 13.7336 3 13.8647 3 14C3 14.1353 3.04716 14.2664 3.13336 14.3707C3.21955 14.4749 3.3394 14.5459 3.47227 14.5713C6.51192 15.155 6.84492 15.4876 7.42802 18.5281C7.4537 18.661 7.52481 18.7807 7.62913 18.8668C7.73346 18.9529 7.8645 19 7.99976 19C8.13502 19 8.26607 18.9529 8.37039 18.8668C8.47472 18.7807 8.54583 18.661 8.5715 18.5281C9.15508 15.4876 9.48809 15.155 12.5277 14.5713C12.6606 14.5459 12.7804 14.4749 12.8666 14.3707C12.9528 14.2664 13 14.1353 13 14C13 13.8647 12.9528 13.7336 12.8666 13.6293C12.7804 13.5251 12.6606 13.4541 12.5277 13.4287Z" fill="#00E398"/>
</svg>
