<svg width="40" height="40" viewBox="0 0 40 40" fill="none" xmlns="http://www.w3.org/2000/svg">
<path d="M33.3334 6.66667C33.3334 3 30.3334 0 26.6667 0H13.3334C9.66669 0 6.66669 3 6.66669 6.66667V33.3333C6.66669 37 9.66669 40 13.3334 40H26.6667C30.3334 40 33.3334 37 33.3334 33.3333V6.66667ZM21.6667 36.6667H18.3334C17.3334 36.6667 16.6667 36 16.6667 35C16.6667 34 17.3334 33.3333 18.3334 33.3333H21.6667C22.6667 33.3333 23.3334 34 23.3334 35C23.3334 36 22.6667 36.6667 21.6667 36.6667ZM30 28.3333C30 29.3333 29.3334 30 28.3334 30H11.6667C10.6667 30 10 29.3333 10 28.3333V8.33333C10 7.33333 10.6667 6.66667 11.6667 6.66667H28.3334C29.3334 6.66667 30 7.33333 30 8.33333V28.3333Z" fill="black"/>
</svg>
