<svg width="72" height="72" viewBox="0 0 72 72" fill="none" xmlns="http://www.w3.org/2000/svg">
<path d="M67.1681 5.38044C67.1424 5.25607 67.0818 5.1416 66.9934 5.05044C66.905 4.95928 66.7924 4.89521 66.6689 4.86575C58.4325 2.852 39.4017 10.0281 29.0911 20.3345C27.2521 22.1586 25.5756 24.1396 24.0806 26.2548C20.9011 25.9736 17.7216 26.2084 15.0117 27.3897C7.36594 30.7548 5.13985 39.5354 4.5197 43.3126C4.48452 43.5194 4.49779 43.7315 4.55846 43.9322C4.61913 44.1329 4.72554 44.3169 4.86934 44.4695C5.01313 44.6222 5.19038 44.7394 5.38714 44.8119C5.5839 44.8845 5.79482 44.9104 6.00329 44.8876L18.2813 43.5334C18.29 44.4591 18.3459 45.3837 18.4486 46.3037C18.5104 46.9426 18.794 47.5397 19.2502 47.9912L24.0047 52.7345C24.4567 53.1901 25.0535 53.4736 25.6922 53.5361C26.6071 53.6384 27.5265 53.6943 28.447 53.7034L27.0998 65.9659C27.0774 66.1743 27.1035 66.3851 27.1761 66.5817C27.2488 66.7783 27.366 66.9555 27.5186 67.0992C27.6712 67.2429 27.855 67.3493 28.0556 67.4101C28.2562 67.4709 28.4682 67.4844 28.6748 67.4495C32.445 66.8448 41.2411 64.6187 44.5866 56.9729C45.7678 54.2631 46.0097 51.099 45.7369 47.935C47.8573 46.4399 49.8434 44.7629 51.6727 42.9231C62.0156 32.6322 69.1509 14.0261 67.1681 5.38044ZM41.3536 30.6465C40.4092 29.7027 39.7658 28.5 39.505 27.1905C39.2442 25.881 39.3776 24.5236 39.8884 23.2899C40.3992 22.0562 41.2643 21.0018 42.3744 20.2599C43.4846 19.518 44.7898 19.122 46.125 19.122C47.4602 19.122 48.7654 19.518 49.8756 20.2599C50.9857 21.0018 51.8508 22.0562 52.3616 23.2899C52.8724 24.5236 53.0058 25.881 52.745 27.1905C52.4842 28.5 51.8409 29.7027 50.8964 30.6465C50.2701 31.2737 49.5264 31.7712 48.7077 32.1107C47.8889 32.4502 47.0113 32.6249 46.125 32.6249C45.2387 32.6249 44.3611 32.4502 43.5424 32.1107C42.7236 31.7712 41.9799 31.2737 41.3536 30.6465Z" fill="#FF60C3"/>
<path d="M23.6812 56.1698C22.9106 56.9419 21.6745 57.2428 20.1867 57.5002C16.8441 58.0697 13.8923 55.1813 14.4928 51.802C14.722 50.5209 15.3998 48.7252 15.8217 48.3033C15.9139 48.2129 15.9753 48.0957 15.9971 47.9684C16.019 47.8411 16.0001 47.7101 15.9433 47.5942C15.8865 47.4782 15.7945 47.383 15.6806 47.3223C15.5666 47.2615 15.4364 47.2382 15.3084 47.2556C13.4392 47.4843 11.7002 48.3318 10.3683 49.6631C7.06219 52.972 6.75 65.25 6.75 65.25C6.75 65.25 19.035 64.9378 22.3411 61.6289C23.6765 60.2981 24.5251 58.5564 24.75 56.6845C24.802 56.0967 24.0862 55.7466 23.6812 56.1698Z" fill="#FF60C3"/>
</svg>
