<svg width="16" height="16" viewBox="0 0 16 16" fill="none" xmlns="http://www.w3.org/2000/svg">
<path d="M6 16C7.10457 16 8 15.1046 8 14C8 12.8954 7.10457 12 6 12C4.89543 12 4 12.8954 4 14C4 15.1046 4.89543 16 6 16Z" fill="#115EFB"/>
<path d="M12 16C13.1046 16 14 15.1046 14 14C14 12.8954 13.1046 12 12 12C10.8954 12 10 12.8954 10 14C10 15.1046 10.8954 16 12 16Z" fill="#115EFB"/>
<path d="M15.68 3.55714C15.36 3.16429 14.88 2.92857 14.4 2.92857H5.28L4.8 1.25714C4.64 0.55 4 0 3.2 0H1.6C0.72 0 0 0.707143 0 1.57143C0 2.43571 0.72 3.14286 1.6 3.14286H1.84L3.2 9.74286C3.36 10.5286 4 11 4.8 11H12.8C13.52 11 14.08 10.5286 14.32 9.9L15.92 4.97143C16.08 4.5 16 4.02857 15.68 3.55714Z" fill="#115EFB"/>
</svg>
