<svg width="16" height="16" viewBox="0 0 16 16" fill="none" xmlns="http://www.w3.org/2000/svg">
<path d="M8 8C10.2091 8 12 6.20914 12 4C12 1.79086 10.2091 0 8 0C5.79086 0 4 1.79086 4 4C4 6.20914 5.79086 8 8 8Z" fill="#115EFB"/>
<path d="M16 14V15C16 15.2652 15.8946 15.5196 15.7071 15.7071C15.5196 15.8946 15.2652 16 15 16H1C0.734784 16 0.48043 15.8946 0.292893 15.7071C0.105357 15.5196 0 15.2652 0 15V14C0 12.4087 0.632141 10.8826 1.75736 9.75736C2.88258 8.63214 4.4087 8 6 8H10C11.5913 8 13.1174 8.63214 14.2426 9.75736C15.3679 10.8826 16 12.4087 16 14Z" fill="#115EFB"/>
</svg>
