<svg width="1900" height="915" viewBox="0 0 1900 915" fill="none" xmlns="http://www.w3.org/2000/svg">
<path d="M438.587 791.407L286.381 751.834C265.796 746.494 253.453 725.459 258.811 704.858L301.369 540.965C306.705 520.364 327.724 508.012 348.309 513.374L500.516 552.947C521.1 558.288 533.443 579.322 528.085 599.923L485.527 763.816C480.169 784.395 459.172 796.769 438.587 791.407Z" fill="#FFEC41"/>
<g opacity="0.3">
<path d="M1373.79 275.813L1223.48 236.732C1203.15 231.458 1190.96 210.685 1196.25 190.34L1238.28 28.4842C1243.55 8.13965 1264.31 -4.05849 1284.64 1.23666L1434.95 40.3179C1455.28 45.5916 1467.47 66.3649 1462.18 86.7094L1420.15 248.565C1414.88 268.91 1394.12 281.108 1373.79 275.813Z" fill="#00E398"/>
</g>
<path opacity="0.3" d="M1913.72 533.451L1800.93 896.441C1800.93 896.441 1795.21 915 1765.63 915C1736.04 915 1402.83 802.147 1402.83 802.147C1387.96 797.518 1379.65 781.702 1384.28 766.829L1497.07 403.84C1501.7 388.967 1517.51 380.652 1532.37 385.281L1895.17 498.134C1910.04 502.763 1918.35 518.579 1913.72 533.451Z" fill="#FF60C3"/>
<path opacity="0.3" d="M-64.1334 426.272L394.782 569.759C409.114 574.237 424.379 566.216 428.845 551.847L527.762 233.877C532.229 219.509 524.228 204.206 509.895 199.728L50.9802 56.2411C36.6479 51.7633 21.3833 59.7843 16.9167 74.1525L-82 392.123" fill="#84ADFF"/>
<path d="M249.18 297.642L485.484 328.446L454.053 166.636L217.75 135.833L249.18 297.642Z" fill="#115EFB"/>
<path d="M247.495 307.009L634.677 357.456L636.156 346.091L248.973 295.643L247.495 307.009Z" fill="#130E50"/>
<path d="M634.675 357.425L433.837 331.267L435.334 319.893L520.211 330.942L636.15 346.05L634.675 357.425Z" fill="#115EFB"/>
<path d="M449.65 172.107L476.135 309.972L253.02 280.884L223.758 142.671L449.65 172.107Z" fill="#130E50"/>
<path d="M488.521 326.817L263.518 297.49" stroke="#130E50" stroke-width="0.75" stroke-miterlimit="10"/>
<path d="M321.713 312.1L333.5 313.637L333.8 311.333L322.013 309.797L321.713 312.1Z" stroke="white" stroke-width="0.75" stroke-miterlimit="10"/>
<path d="M300.647 309.387L312.434 310.923L312.734 308.62L300.947 307.084L300.647 309.387Z" stroke="white" stroke-width="0.75" stroke-miterlimit="10"/>
<path d="M482.035 310.733L245.732 279.951" stroke="#E0F1FF" stroke-width="0.75" stroke-miterlimit="10"/>
<path d="M569.472 337.368L564.765 340.994L535.851 337.238L532.293 332.593" stroke="#130E50" stroke-width="0.75" stroke-miterlimit="10"/>
<path d="M1389 374C1434.29 374 1471 337.287 1471 292C1471 246.713 1434.29 210 1389 210C1343.71 210 1307 246.713 1307 292C1307 337.287 1343.71 374 1389 374Z" fill="#FFEC41"/>
<g opacity="0.3">
<g opacity="0.5">
<path d="M736.534 773.791C751.305 730.478 728.183 683.371 684.89 668.575C641.596 653.779 594.525 676.897 579.754 720.21C564.982 763.523 588.104 810.63 631.398 825.426C674.691 840.222 721.762 817.105 736.534 773.791Z" fill="#00E398"/>
</g>
</g>
<path d="M1519.29 340.585L1379.85 331.56C1373.79 331.174 1369.21 325.943 1369.61 319.876L1374.61 242.764C1374.99 236.697 1380.22 232.109 1386.28 232.495L1525.71 241.521C1531.78 241.907 1536.36 247.137 1535.97 253.204L1530.98 330.316C1530.55 336.383 1525.33 340.992 1519.29 340.585Z" fill="#115EFB"/>
<path d="M1518.39 300.589C1525.47 284.032 1517.8 264.866 1501.25 257.782C1484.71 250.698 1465.56 258.376 1458.48 274.933C1451.4 291.49 1459.07 310.655 1475.62 317.74C1492.16 324.824 1511.31 317.145 1518.39 300.589Z" fill="#130E50"/>
<path d="M1514.42 289.455C1515.34 275.049 1504.44 262.615 1490.05 261.693C1475.65 260.771 1463.23 271.683 1462.31 286.089C1461.38 300.496 1472.29 312.93 1486.68 313.851C1501.06 314.773 1513.48 303.861 1514.42 289.455Z" stroke="white" stroke-width="0.75" stroke-miterlimit="10"/>
<path d="M1502.34 288.663C1502.83 280.924 1496.99 274.256 1489.25 273.763C1481.52 273.27 1474.86 279.123 1474.37 286.862C1473.87 294.601 1479.72 301.268 1487.45 301.761C1495.17 302.254 1501.85 296.402 1502.34 288.663Z" fill="#D0EBFC"/>
<path d="M1492.75 291.856L1483.47 291.256C1481.37 291.127 1479.79 289.305 1479.93 287.226C1480.06 285.125 1481.88 283.538 1483.96 283.689L1493.24 284.289C1495.34 284.417 1496.92 286.24 1496.77 288.319C1496.64 290.399 1494.84 291.985 1492.75 291.856Z" fill="white"/>
<path d="M1409.07 233.995L1403.42 321.397" stroke="#130E50" stroke-width="0.75" stroke-miterlimit="10"/>
<path d="M1369.64 319.212L1530.98 329.674" stroke="#130E50" stroke-width="0.75" stroke-miterlimit="10"/>
<path d="M1406.21 228.94L1393.53 228.119L1393.22 233.018L1405.89 233.839L1406.21 228.94Z" fill="#130E50"/>
<path d="M1425.71 230.183L1413.03 229.361L1412.71 234.26L1425.39 235.082L1425.71 230.183Z" fill="#92D1F8"/>
<path d="M1374.16 249.109L1385.55 249.838C1390.31 250.138 1393.93 254.254 1393.63 259.035L1390.78 303.24C1390.48 307.999 1386.37 311.622 1381.59 311.322L1370.19 310.593" stroke="white" stroke-width="0.75" stroke-miterlimit="10"/>
<path d="M541.187 172.91C541.187 174.234 540.124 175.298 538.801 175.298C537.478 175.298 536.415 174.234 536.415 172.91C536.415 171.586 537.478 170.522 538.801 170.522C540.124 170.522 541.187 171.608 541.187 172.91Z" fill="#FF60C3"/>
<path d="M541.187 194.401C541.187 195.725 540.124 196.788 538.801 196.788C537.477 196.788 536.415 195.725 536.415 194.401C536.415 193.076 537.477 192.013 538.801 192.013C540.124 192.013 541.187 193.098 541.187 194.401Z" fill="#FF60C3"/>
<path d="M541.187 215.912C541.187 217.236 540.124 218.3 538.801 218.3C537.477 218.3 536.415 217.236 536.415 215.912C536.415 214.588 537.477 213.524 538.801 213.524C540.124 213.524 541.187 214.588 541.187 215.912Z" fill="#FF60C3"/>
<path d="M541.187 237.403C541.187 238.728 540.124 239.791 538.801 239.791C537.478 239.791 536.415 238.728 536.415 237.403C536.415 236.079 537.478 235.016 538.801 235.016C540.124 235.016 541.187 236.079 541.187 237.403Z" fill="#FF60C3"/>
<path d="M541.187 258.894C541.187 260.218 540.124 261.282 538.801 261.282C537.477 261.282 536.415 260.218 536.415 258.894C536.415 257.57 537.477 256.506 538.801 256.506C540.124 256.506 541.187 257.57 541.187 258.894Z" fill="#FF60C3"/>
<path d="M563.16 175.298C564.478 175.298 565.546 174.229 565.546 172.91C565.546 171.592 564.478 170.522 563.16 170.522C561.842 170.522 560.774 171.592 560.774 172.91C560.774 174.229 561.842 175.298 563.16 175.298Z" fill="#FF60C3"/>
<path d="M565.546 194.401C565.546 195.725 564.483 196.788 563.16 196.788C561.837 196.788 560.774 195.725 560.774 194.401C560.774 193.076 561.837 192.013 563.16 192.013C564.483 192.034 565.546 193.098 565.546 194.401Z" fill="#FF60C3"/>
<path d="M565.546 215.912C565.546 217.236 564.483 218.3 563.16 218.3C561.837 218.3 560.774 217.236 560.774 215.912C560.774 214.588 561.837 213.524 563.16 213.524C564.483 213.524 565.546 214.588 565.546 215.912Z" fill="#FF60C3"/>
<path d="M565.546 237.403C565.546 238.728 564.483 239.791 563.16 239.791C561.837 239.791 560.774 238.728 560.774 237.403C560.774 236.079 561.837 235.016 563.16 235.016C564.483 235.016 565.546 236.079 565.546 237.403Z" fill="#FF60C3"/>
<path d="M565.546 258.894C565.546 260.218 564.483 261.282 563.16 261.282C561.837 261.282 560.774 260.218 560.774 258.894C560.774 257.57 561.837 256.506 563.16 256.506C564.483 256.506 565.546 257.57 565.546 258.894Z" fill="#FF60C3"/>
<path d="M589.883 172.91C589.883 174.234 588.82 175.298 587.497 175.298C586.174 175.298 585.111 174.234 585.111 172.91C585.111 171.586 586.174 170.522 587.497 170.522C588.82 170.522 589.883 171.608 589.883 172.91Z" fill="#FF60C3"/>
<path d="M589.883 194.401C589.883 195.725 588.82 196.788 587.497 196.788C586.174 196.788 585.111 195.725 585.111 194.401C585.111 193.076 586.174 192.013 587.497 192.013C588.82 192.013 589.883 193.098 589.883 194.401Z" fill="#FF60C3"/>
<path d="M589.883 215.912C589.883 217.236 588.82 218.3 587.497 218.3C586.174 218.3 585.111 217.236 585.111 215.912C585.111 214.588 586.174 213.524 587.497 213.524C588.82 213.524 589.883 214.588 589.883 215.912Z" fill="#FF60C3"/>
<path d="M589.883 237.403C589.883 238.728 588.82 239.791 587.497 239.791C586.174 239.791 585.111 238.728 585.111 237.403C585.111 236.079 586.174 235.016 587.497 235.016C588.82 235.016 589.883 236.079 589.883 237.403Z" fill="#FF60C3"/>
<path d="M589.883 258.894C589.883 260.218 588.82 261.282 587.497 261.282C586.174 261.282 585.111 260.218 585.111 258.894C585.111 257.57 586.174 256.506 587.497 256.506C588.82 256.506 589.883 257.57 589.883 258.894Z" fill="#FF60C3"/>
<path d="M614.243 172.91C614.243 174.234 613.18 175.298 611.856 175.298C610.533 175.298 609.47 174.234 609.47 172.91C609.47 171.586 610.533 170.522 611.856 170.522C613.18 170.544 614.243 171.608 614.243 172.91Z" fill="#FF60C3"/>
<path d="M614.242 194.401C614.242 195.725 613.18 196.788 611.856 196.788C610.533 196.788 609.47 195.725 609.47 194.401C609.47 193.076 610.533 192.013 611.856 192.013C613.18 192.034 614.242 193.098 614.242 194.401Z" fill="#FF60C3"/>
<path d="M614.242 215.912C614.242 217.236 613.18 218.3 611.856 218.3C610.533 218.3 609.47 217.236 609.47 215.912C609.47 214.588 610.533 213.524 611.856 213.524C613.18 213.524 614.242 214.588 614.242 215.912Z" fill="#FF60C3"/>
<path d="M614.243 237.403C614.243 238.728 613.18 239.791 611.856 239.791C610.533 239.791 609.47 238.728 609.47 237.403C609.47 236.079 610.533 235.016 611.856 235.016C613.18 235.016 614.243 236.079 614.243 237.403Z" fill="#FF60C3"/>
<path d="M614.242 258.894C614.242 260.218 613.18 261.282 611.856 261.282C610.533 261.282 609.47 260.218 609.47 258.894C609.47 257.57 610.533 256.506 611.856 256.506C613.18 256.506 614.242 257.57 614.242 258.894Z" fill="#FF60C3"/>
<path d="M638.601 172.91C638.601 174.234 637.539 175.298 636.215 175.298C634.892 175.298 633.829 174.234 633.829 172.91C633.829 171.586 634.892 170.522 636.215 170.522C637.539 170.544 638.601 171.608 638.601 172.91Z" fill="#FF60C3"/>
<path d="M638.601 194.401C638.601 195.725 637.539 196.788 636.215 196.788C634.892 196.788 633.829 195.725 633.829 194.401C633.829 193.076 634.892 192.013 636.215 192.013C637.539 192.034 638.601 193.098 638.601 194.401Z" fill="#FF60C3"/>
<path d="M638.601 215.912C638.601 217.236 637.539 218.3 636.215 218.3C634.892 218.3 633.829 217.236 633.829 215.912C633.829 214.588 634.892 213.524 636.215 213.524C637.539 213.524 638.601 214.588 638.601 215.912Z" fill="#FF60C3"/>
<path d="M638.601 237.403C638.601 238.728 637.539 239.791 636.215 239.791C634.892 239.791 633.829 238.728 633.829 237.403C633.829 236.079 634.892 235.016 636.215 235.016C637.539 235.016 638.601 236.079 638.601 237.403Z" fill="#FF60C3"/>
<path d="M638.601 258.894C638.601 260.218 637.539 261.282 636.215 261.282C634.892 261.282 633.829 260.218 633.829 258.894C633.829 257.57 634.892 256.506 636.215 256.506C637.539 256.506 638.601 257.57 638.601 258.894Z" fill="#FF60C3"/>
<path d="M201.004 687.295C201.004 688.619 199.941 689.683 198.618 689.683C197.295 689.683 196.232 688.619 196.232 687.295C196.232 685.971 197.295 684.907 198.618 684.907C199.941 684.929 201.004 685.993 201.004 687.295Z" fill="#00E398"/>
<path d="M201.004 708.807C201.004 710.131 199.941 711.195 198.618 711.195C197.295 711.195 196.232 710.131 196.232 708.807C196.232 707.483 197.295 706.419 198.618 706.419C199.941 706.419 201.004 707.483 201.004 708.807Z" fill="#00E398"/>
<path d="M201.004 730.298C201.004 731.622 199.941 732.686 198.618 732.686C197.295 732.686 196.232 731.622 196.232 730.298C196.232 728.974 197.295 727.91 198.618 727.91C199.941 727.91 201.004 728.974 201.004 730.298Z" fill="#00E398"/>
<path d="M225.341 687.295C225.341 688.619 224.279 689.683 222.955 689.683C221.632 689.683 220.569 688.619 220.569 687.295C220.569 685.971 221.632 684.907 222.955 684.907C224.279 684.929 225.341 685.993 225.341 687.295Z" fill="#00E398"/>
<path d="M225.341 708.807C225.341 710.131 224.279 711.195 222.955 711.195C221.632 711.195 220.569 710.131 220.569 708.807C220.569 707.483 221.632 706.419 222.955 706.419C224.279 706.419 225.341 707.483 225.341 708.807Z" fill="#00E398"/>
<path d="M225.342 730.298C225.342 731.622 224.279 732.686 222.955 732.686C221.632 732.686 220.569 731.622 220.569 730.298C220.569 728.974 221.632 727.91 222.955 727.91C224.279 727.91 225.342 728.974 225.342 730.298Z" fill="#00E398"/>
<path d="M249.701 687.295C249.701 688.619 248.638 689.683 247.315 689.683C245.992 689.683 244.929 688.619 244.929 687.295C244.929 685.971 245.992 684.907 247.315 684.907C248.638 684.929 249.701 685.993 249.701 687.295Z" fill="#00E398"/>
<path d="M249.701 708.807C249.701 710.131 248.638 711.195 247.315 711.195C245.992 711.195 244.929 710.131 244.929 708.807C244.929 707.483 245.992 706.419 247.315 706.419C248.638 706.419 249.701 707.483 249.701 708.807Z" fill="#00E398"/>
<path d="M249.701 730.298C249.701 731.622 248.638 732.686 247.315 732.686C245.992 732.686 244.929 731.622 244.929 730.298C244.929 728.974 245.992 727.91 247.315 727.91C248.638 727.91 249.701 728.974 249.701 730.298Z" fill="#00E398"/>
<path d="M274.06 687.295C274.06 688.619 272.997 689.683 271.674 689.683C270.351 689.683 269.288 688.619 269.288 687.295C269.288 685.971 270.351 684.907 271.674 684.907C272.997 684.929 274.06 685.993 274.06 687.295Z" fill="#00E398"/>
<path d="M274.06 708.807C274.06 710.131 272.997 711.195 271.674 711.195C270.351 711.195 269.288 710.131 269.288 708.807C269.288 707.483 270.351 706.419 271.674 706.419C272.997 706.419 274.06 707.483 274.06 708.807Z" fill="#00E398"/>
<path d="M274.06 730.298C274.06 731.622 272.997 732.686 271.674 732.686C270.351 732.686 269.288 731.622 269.288 730.298C269.288 728.974 270.351 727.91 271.674 727.91C272.997 727.91 274.06 728.974 274.06 730.298Z" fill="#00E398"/>
<path d="M298.398 687.295C298.398 688.619 297.335 689.683 296.012 689.683C294.688 689.683 293.626 688.619 293.626 687.295C293.626 685.971 294.688 684.907 296.012 684.907C297.335 684.929 298.398 685.993 298.398 687.295Z" fill="#00E398"/>
<path d="M298.398 708.807C298.398 710.131 297.335 711.195 296.012 711.195C294.688 711.195 293.626 710.131 293.626 708.807C293.626 707.483 294.688 706.419 296.012 706.419C297.335 706.419 298.398 707.483 298.398 708.807Z" fill="#00E398"/>
<path d="M298.398 730.298C298.398 731.622 297.335 732.686 296.012 732.686C294.688 732.686 293.625 731.622 293.625 730.298C293.625 728.974 294.688 727.91 296.012 727.91C297.335 727.91 298.398 728.974 298.398 730.298Z" fill="#00E398"/>
<path d="M1564.25 150.967C1564.25 152.274 1563.2 153.325 1561.89 153.325C1560.59 153.325 1559.54 152.274 1559.54 150.967C1559.54 149.659 1560.59 148.608 1561.89 148.608C1563.2 148.608 1564.25 149.659 1564.25 150.967Z" fill="#130E50"/>
<path d="M1564.25 172.19C1564.25 173.498 1563.2 174.548 1561.89 174.548C1560.59 174.548 1559.54 173.498 1559.54 172.19C1559.54 170.882 1560.59 169.832 1561.89 169.832C1563.2 169.832 1564.25 170.904 1564.25 172.19Z" fill="#130E50"/>
<path d="M1564.25 193.415C1564.25 194.723 1563.2 195.773 1561.89 195.773C1560.59 195.773 1559.54 194.723 1559.54 193.415C1559.54 192.107 1560.59 191.057 1561.89 191.057C1563.2 191.078 1564.25 192.129 1564.25 193.415Z" fill="#130E50"/>
<path d="M1585.95 153.325C1587.25 153.325 1588.31 152.269 1588.31 150.967C1588.31 149.664 1587.25 148.608 1585.95 148.608C1584.65 148.608 1583.59 149.664 1583.59 150.967C1583.59 152.269 1584.65 153.325 1585.95 153.325Z" fill="#130E50"/>
<path d="M1585.95 174.548C1587.25 174.548 1588.31 173.493 1588.31 172.19C1588.31 170.888 1587.25 169.832 1585.95 169.832C1584.65 169.832 1583.59 170.888 1583.59 172.19C1583.59 173.493 1584.65 174.548 1585.95 174.548Z" fill="#130E50"/>
<path d="M1588.31 193.415C1588.31 194.723 1587.26 195.773 1585.95 195.773C1584.64 195.773 1583.59 194.723 1583.59 193.415C1583.59 192.107 1584.64 191.057 1585.95 191.057C1587.26 191.057 1588.31 192.129 1588.31 193.415Z" fill="#130E50"/>
<path d="M1612.36 150.967C1612.36 152.274 1611.31 153.325 1610.01 153.325C1608.7 153.325 1607.65 152.274 1607.65 150.967C1607.65 149.659 1608.7 148.608 1610.01 148.608C1611.31 148.608 1612.36 149.659 1612.36 150.967Z" fill="#130E50"/>
<path d="M1612.36 172.19C1612.36 173.498 1611.31 174.548 1610.01 174.548C1608.7 174.548 1607.65 173.498 1607.65 172.19C1607.65 170.882 1608.7 169.832 1610.01 169.832C1611.31 169.832 1612.36 170.904 1612.36 172.19Z" fill="#130E50"/>
<path d="M1612.36 193.415C1612.36 194.723 1611.31 195.773 1610.01 195.773C1608.7 195.773 1607.65 194.723 1607.65 193.415C1607.65 192.107 1608.7 191.057 1610.01 191.057C1611.31 191.057 1612.36 192.129 1612.36 193.415Z" fill="#130E50"/>
<path d="M1636.4 150.967C1636.4 152.274 1635.35 153.325 1634.04 153.325C1632.73 153.325 1631.69 152.274 1631.69 150.967C1631.69 149.659 1632.73 148.608 1634.04 148.608C1635.35 148.608 1636.4 149.659 1636.4 150.967Z" fill="#130E50"/>
<path d="M1636.4 172.19C1636.4 173.498 1635.35 174.548 1634.04 174.548C1632.73 174.548 1631.69 173.498 1631.69 172.19C1631.69 170.882 1632.73 169.832 1634.04 169.832C1635.35 169.832 1636.4 170.904 1636.4 172.19Z" fill="#130E50"/>
<path d="M1636.4 193.415C1636.4 194.723 1635.35 195.773 1634.04 195.773C1632.73 195.773 1631.69 194.723 1631.69 193.415C1631.69 192.107 1632.73 191.057 1634.04 191.057C1635.35 191.078 1636.4 192.129 1636.4 193.415Z" fill="#130E50"/>
<path d="M1660.45 150.967C1660.45 152.274 1659.4 153.325 1658.1 153.325C1656.79 153.325 1655.74 152.274 1655.74 150.967C1655.74 149.659 1656.79 148.608 1658.1 148.608C1659.4 148.608 1660.45 149.659 1660.45 150.967Z" fill="#130E50"/>
<path d="M1660.45 172.19C1660.45 173.498 1659.4 174.548 1658.1 174.548C1656.79 174.548 1655.74 173.498 1655.74 172.19C1655.74 170.882 1656.79 169.832 1658.1 169.832C1659.4 169.832 1660.45 170.904 1660.45 172.19Z" fill="#130E50"/>
<path d="M1660.45 193.415C1660.45 194.723 1659.4 195.773 1658.1 195.773C1656.79 195.773 1655.74 194.723 1655.74 193.415C1655.74 192.107 1656.79 191.057 1658.1 191.057C1659.4 191.078 1660.45 192.129 1660.45 193.415Z" fill="#130E50"/>
<path d="M1239.71 605.358C1239.71 606.666 1238.66 607.716 1237.36 607.716C1236.05 607.716 1235 606.666 1235 605.358C1235 604.05 1236.05 603 1237.36 603C1238.66 603 1239.71 604.05 1239.71 605.358Z" fill="#115EFB"/>
<path d="M1239.71 626.582C1239.71 627.89 1238.66 628.94 1237.36 628.94C1236.05 628.94 1235 627.89 1235 626.582C1235 625.274 1236.05 624.224 1237.36 624.224C1238.66 624.224 1239.71 625.274 1239.71 626.582Z" fill="#115EFB"/>
<path d="M1239.71 647.805C1239.71 649.113 1238.66 650.164 1237.36 650.164C1236.05 650.164 1235 649.113 1235 647.805C1235 646.498 1236.05 645.447 1237.36 645.447C1238.66 645.447 1239.71 646.498 1239.71 647.805Z" fill="#115EFB"/>
<path d="M1239.71 669.029C1239.71 670.337 1238.66 671.387 1237.36 671.387C1236.05 671.387 1235 670.337 1235 669.029C1235 667.721 1236.05 666.671 1237.36 666.671C1238.66 666.671 1239.71 667.743 1239.71 669.029Z" fill="#115EFB"/>
<path d="M1239.71 690.253C1239.71 691.56 1238.66 692.611 1237.36 692.611C1236.05 692.611 1235 691.56 1235 690.253C1235 688.945 1236.05 687.895 1237.36 687.895C1238.66 687.895 1239.71 688.966 1239.71 690.253Z" fill="#115EFB"/>
<path d="M1263.77 605.358C1263.77 606.666 1262.72 607.716 1261.41 607.716C1260.11 607.716 1259.06 606.666 1259.06 605.358C1259.06 604.05 1260.11 603 1261.41 603C1262.72 603 1263.77 604.05 1263.77 605.358Z" fill="#115EFB"/>
<path d="M1263.77 626.582C1263.77 627.89 1262.72 628.94 1261.41 628.94C1260.11 628.94 1259.06 627.89 1259.06 626.582C1259.06 625.274 1260.11 624.224 1261.41 624.224C1262.72 624.224 1263.77 625.274 1263.77 626.582Z" fill="#115EFB"/>
<path d="M1263.77 647.805C1263.77 649.113 1262.72 650.164 1261.41 650.164C1260.11 650.164 1259.06 649.113 1259.06 647.805C1259.06 646.498 1260.11 645.447 1261.41 645.447C1262.72 645.447 1263.77 646.498 1263.77 647.805Z" fill="#115EFB"/>
<path d="M1263.77 669.029C1263.77 670.337 1262.72 671.387 1261.41 671.387C1260.11 671.387 1259.06 670.337 1259.06 669.029C1259.06 667.721 1260.11 666.671 1261.41 666.671C1262.72 666.671 1263.77 667.743 1263.77 669.029Z" fill="#115EFB"/>
<path d="M1263.77 690.253C1263.77 691.56 1262.72 692.611 1261.41 692.611C1260.11 692.611 1259.06 691.56 1259.06 690.253C1259.06 688.945 1260.11 687.895 1261.41 687.895C1262.72 687.895 1263.77 688.966 1263.77 690.253Z" fill="#115EFB"/>
<path d="M1287.8 605.358C1287.8 606.666 1286.75 607.716 1285.45 607.716C1284.14 607.716 1283.09 606.666 1283.09 605.358C1283.09 604.05 1284.14 603 1285.45 603C1286.75 603 1287.8 604.05 1287.8 605.358Z" fill="#115EFB"/>
<path d="M1287.8 626.582C1287.8 627.89 1286.75 628.94 1285.45 628.94C1284.14 628.94 1283.09 627.89 1283.09 626.582C1283.09 625.274 1284.14 624.224 1285.45 624.224C1286.75 624.224 1287.8 625.274 1287.8 626.582Z" fill="#115EFB"/>
<path d="M1287.8 647.805C1287.8 649.113 1286.75 650.164 1285.45 650.164C1284.14 650.164 1283.09 649.113 1283.09 647.805C1283.09 646.498 1284.14 645.447 1285.45 645.447C1286.75 645.447 1287.8 646.498 1287.8 647.805Z" fill="#115EFB"/>
<path d="M1287.8 669.029C1287.8 670.337 1286.75 671.387 1285.45 671.387C1284.14 671.387 1283.09 670.337 1283.09 669.029C1283.09 667.721 1284.14 666.671 1285.45 666.671C1286.75 666.671 1287.8 667.743 1287.8 669.029Z" fill="#115EFB"/>
<path d="M1287.8 690.253C1287.8 691.56 1286.75 692.611 1285.45 692.611C1284.14 692.611 1283.09 691.56 1283.09 690.253C1283.09 688.945 1284.14 687.895 1285.45 687.895C1286.75 687.895 1287.8 688.966 1287.8 690.253Z" fill="#115EFB"/>
<path d="M1311.86 605.358C1311.86 606.666 1310.81 607.716 1309.5 607.716C1308.2 607.716 1307.15 606.666 1307.15 605.358C1307.15 604.05 1308.2 603 1309.5 603C1310.81 603 1311.86 604.05 1311.86 605.358Z" fill="#115EFB"/>
<path d="M1311.86 626.582C1311.86 627.89 1310.81 628.94 1309.5 628.94C1308.2 628.94 1307.15 627.89 1307.15 626.582C1307.15 625.274 1308.2 624.224 1309.5 624.224C1310.81 624.224 1311.86 625.274 1311.86 626.582Z" fill="#115EFB"/>
<path d="M1311.86 647.805C1311.86 649.113 1310.81 650.164 1309.5 650.164C1308.2 650.164 1307.15 649.113 1307.15 647.805C1307.15 646.498 1308.2 645.447 1309.5 645.447C1310.81 645.447 1311.86 646.498 1311.86 647.805Z" fill="#115EFB"/>
<path d="M1311.86 669.029C1311.86 670.337 1310.81 671.387 1309.5 671.387C1308.2 671.387 1307.15 670.337 1307.15 669.029C1307.15 667.721 1308.2 666.671 1309.5 666.671C1310.81 666.671 1311.86 667.743 1311.86 669.029Z" fill="#115EFB"/>
<path d="M1311.86 690.253C1311.86 691.56 1310.81 692.611 1309.5 692.611C1308.2 692.611 1307.15 691.56 1307.15 690.253C1307.15 688.945 1308.2 687.895 1309.5 687.895C1310.81 687.895 1311.86 688.966 1311.86 690.253Z" fill="#115EFB"/>
<path d="M1335.92 605.358C1335.92 606.666 1334.87 607.716 1333.56 607.716C1332.25 607.716 1331.2 606.666 1331.2 605.358C1331.2 604.05 1332.25 603 1333.56 603C1334.87 603 1335.92 604.05 1335.92 605.358Z" fill="#115EFB"/>
<path d="M1335.92 626.582C1335.92 627.89 1334.87 628.94 1333.56 628.94C1332.25 628.94 1331.2 627.89 1331.2 626.582C1331.2 625.274 1332.25 624.224 1333.56 624.224C1334.87 624.224 1335.92 625.274 1335.92 626.582Z" fill="#115EFB"/>
<path d="M1335.92 647.805C1335.92 649.113 1334.87 650.164 1333.56 650.164C1332.25 650.164 1331.2 649.113 1331.2 647.805C1331.2 646.498 1332.25 645.447 1333.56 645.447C1334.87 645.447 1335.92 646.498 1335.92 647.805Z" fill="#115EFB"/>
<path d="M1335.92 669.029C1335.92 670.337 1334.87 671.387 1333.56 671.387C1332.25 671.387 1331.2 670.337 1331.2 669.029C1331.2 667.721 1332.25 666.671 1333.56 666.671C1334.87 666.671 1335.92 667.743 1335.92 669.029Z" fill="#115EFB"/>
<path d="M1335.92 690.253C1335.92 691.56 1334.87 692.611 1333.56 692.611C1332.25 692.611 1331.2 691.56 1331.2 690.253C1331.2 688.945 1332.25 687.895 1333.56 687.895C1334.87 687.895 1335.92 688.966 1335.92 690.253Z" fill="#115EFB"/>
<path d="M449.455 577.086L191.005 646.16C188.575 646.811 186.081 645.356 185.43 642.925L134.695 452.765C134.044 450.334 135.497 447.838 137.927 447.187L396.376 378.113C398.806 377.461 401.3 378.916 401.951 381.347L452.687 571.507C453.316 573.938 451.862 576.434 449.455 577.086Z" fill="#115EFB"/>
<path d="M147.166 452.811L196.229 636.671L425.024 575.524L375.962 391.663L147.166 452.811Z" fill="#130E50"/>
<path d="M415.009 465.682L421.994 491.839C422.753 494.64 421.083 497.527 418.285 498.265L417.395 498.504C414.597 499.263 411.712 497.592 410.975 494.792L403.99 468.634C403.231 465.834 404.901 462.946 407.721 462.208L408.61 461.97C411.387 461.21 414.272 462.881 415.009 465.682Z" stroke="#130E50" stroke-width="0.75" stroke-miterlimit="10"/>
<path d="M425.052 575.523L375.987 391.637" stroke="white" stroke-width="0.75" stroke-miterlimit="10"/>
<path d="M196.232 636.652L147.167 452.787" stroke="white" stroke-width="0.75" stroke-miterlimit="10"/>
<path d="M324.232 594.387L168.251 483.634" stroke="#30308C" stroke-width="0.75" stroke-miterlimit="10"/>
<path d="M414.988 578.193L297.66 494.879" stroke="#30308C" stroke-width="0.75" stroke-miterlimit="10"/>
<path d="M336.01 471.217L265.514 421.159" stroke="#30308C" stroke-width="0.75" stroke-miterlimit="10"/>
<path d="M230.743 540.53L160.247 490.472" stroke="#30308C" stroke-width="0.75" stroke-miterlimit="10"/>
<path d="M470.258 666.599L469.021 666.056C464.813 664.233 462.861 659.305 464.683 655.094L492.556 590.557C494.291 586.563 497.003 583.068 500.43 580.463C513.119 570.824 547.955 550.701 597.52 572.149L594.483 579.182C548.628 559.341 516.655 577.749 505.05 586.584C502.664 588.386 500.777 590.817 499.584 593.618L471.711 658.155C471.559 658.502 471.711 658.914 472.058 659.045L473.294 659.587L470.258 666.599Z" fill="#130E50"/>
<path d="M542.532 573.864L540.645 560.991C559.365 558.256 578.843 561.187 598.539 569.718L593.376 581.657C575.958 574.103 558.844 571.498 542.532 573.864Z" fill="#115EFB"/>
<path d="M472.318 680.796L471.949 680.644C466.288 678.191 463.663 671.592 466.114 665.926L469.65 657.721C472.101 652.055 478.695 649.428 484.357 651.881L484.725 652.033L472.318 680.796Z" fill="#115EFB"/>
<path d="M480.496 703.523C470.887 699.356 466.462 688.198 470.605 678.581L481.927 652.358C486.092 642.742 497.241 638.313 506.85 642.46L480.496 703.523Z" fill="#115EFB"/>
<path d="M491.255 719.262L479.021 713.965C474.249 711.903 472.058 706.367 474.119 701.592L501.102 639.117C503.163 634.341 508.694 632.149 513.466 634.211L525.7 639.508C530.472 641.57 532.663 647.105 530.602 651.881L503.619 714.356C501.558 719.132 496.027 721.324 491.255 719.262Z" fill="#130E50"/>
<path d="M499.454 642.895L475.745 697.815" stroke="white" stroke-width="0.75" stroke-miterlimit="10"/>
<path d="M530.299 652.576L525.353 653.51C520.06 654.508 515.635 658.068 513.488 663.018L499.996 694.233C497.87 699.183 498.326 704.848 501.211 709.385L503.922 713.64" stroke="white" stroke-width="0.75" stroke-miterlimit="10"/>
<path d="M615.978 729.639L617.215 730.181C621.423 732.005 626.347 730.051 628.169 725.84L656.042 661.303C657.777 657.308 658.45 652.945 657.994 648.669C656.324 632.822 647.105 593.64 597.519 572.192L594.483 579.226C640.338 599.067 648.841 634.971 650.381 649.472C650.684 652.446 650.229 655.485 649.014 658.285L621.141 722.822C620.989 723.17 620.577 723.322 620.252 723.17L619.015 722.627L615.978 729.639Z" fill="#130E50"/>
<path d="M633.939 613.394L644.589 605.948C633.765 590.427 618.278 578.249 598.56 569.718L593.398 581.657C610.859 589.211 624.503 599.892 633.939 613.394Z" fill="#115EFB"/>
<path d="M604.222 737.844L604.591 737.996C610.252 740.449 616.846 737.844 619.297 732.156L622.833 723.951C625.284 718.285 622.681 711.686 616.998 709.233L616.629 709.081L604.222 737.844Z" fill="#115EFB"/>
<path d="M582.097 747.46C591.706 751.628 602.877 747.2 607.02 737.562L618.343 711.339C622.507 701.722 618.083 690.543 608.452 686.396L582.097 747.46Z" fill="#115EFB"/>
<path d="M563.269 750.412L575.503 755.709C580.275 757.771 585.806 755.579 587.867 750.803L614.851 688.328C616.911 683.553 614.72 678.017 609.948 675.955L597.715 670.658C592.943 668.596 587.411 670.788 585.351 675.564L558.367 738.039C556.306 742.793 558.497 748.35 563.269 750.412Z" fill="#130E50"/>
<path d="M613.224 692.105L589.494 747.026" stroke="white" stroke-width="0.75" stroke-miterlimit="10"/>
<path d="M585.047 676.26L587.758 680.514C590.643 685.051 591.099 690.717 588.973 695.666L575.481 726.904C573.355 731.853 568.909 735.392 563.616 736.412L558.671 737.345" stroke="white" stroke-width="0.75" stroke-miterlimit="10"/>
<path d="M202 373C202 376.326 199.304 379 196 379C192.674 379 190 376.304 190 373C190 369.674 192.696 367 196 367C199.304 366.978 202 369.674 202 373Z" stroke="#130E50" stroke-width="0.75" stroke-miterlimit="10"/>
<path d="M1220 704C1220 707.326 1217.3 710 1214 710C1210.67 710 1208 707.304 1208 704C1208 700.674 1210.7 698 1214 698C1217.3 698 1220 700.674 1220 704Z" stroke="#FF60C3" stroke-width="0.75" stroke-miterlimit="10"/>
<path d="M668.492 693.396L682.092 707.007" stroke="#130E50" stroke-width="0.75" stroke-miterlimit="10"/>
<path d="M682.092 693.396L668.492 707.007" stroke="#130E50" stroke-width="0.75" stroke-miterlimit="10"/>
<path d="M1504.59 165.48L1518.02 178.901" stroke="#130E50" stroke-width="0.75" stroke-miterlimit="10"/>
<path d="M1518.02 165.48L1504.59 178.901" stroke="#130E50" stroke-width="0.75" stroke-miterlimit="10"/>
<path d="M513.812 466C526.279 448.302 522.123 423.778 504.494 411.225C486.886 398.694 462.488 402.871 450 420.591" stroke="#115EFB" stroke-width="0.75" stroke-miterlimit="10"/>
<path d="M1446.26 375C1439.04 395.283 1449.69 417.552 1470.04 424.747C1490.41 431.942 1512.77 421.331 1520 401.069" stroke="#130E50" stroke-width="0.75" stroke-miterlimit="10"/>
<path d="M1597.09 355.975L1637.71 151.865C1638.22 149.271 1640.75 147.578 1643.34 148.092L1756.98 170.752C1759.57 171.266 1761.27 173.796 1760.75 176.39L1720.14 380.5C1719.62 383.094 1717.1 384.788 1714.5 384.273L1600.86 361.613C1598.25 361.099 1596.58 358.569 1597.09 355.975Z" fill="#115EFB"/>
<path d="M1755.51 177.905L1641.81 155.246L1604.06 344.968L1717.76 367.627L1755.51 177.905Z" fill="#130E50"/>
<path d="M1666.56 369.051L1650.95 365.943C1649.06 365.557 1647.84 363.735 1648.2 361.848C1648.59 359.962 1650.41 358.74 1652.3 359.104L1667.91 362.213C1669.8 362.599 1671.02 364.421 1670.65 366.307C1670.29 368.194 1668.45 369.416 1666.56 369.051Z" stroke="#130E50" stroke-width="0.75" stroke-miterlimit="10"/>
<path d="M1604.12 345.021L1717.82 367.68" stroke="white" stroke-width="0.75" stroke-miterlimit="10"/>
<path d="M1641.86 155.296L1755.57 177.977" stroke="white" stroke-width="0.75" stroke-miterlimit="10"/>
<path d="M1623.23 273.268L1725.77 217.744" stroke="#30308C" stroke-width="0.75" stroke-miterlimit="10"/>
<path d="M1607.63 327.334L1684.77 285.552" stroke="#30308C" stroke-width="0.75" stroke-miterlimit="10"/>
<path d="M1690.36 297.944L1736.7 272.818" stroke="#30308C" stroke-width="0.75" stroke-miterlimit="10"/>
<path d="M1685.11 200.078L1731.45 174.975" stroke="#30308C" stroke-width="0.75" stroke-miterlimit="10"/>
<path d="M1758.27 198.669L1756.13 198.242L1751.99 219.077L1754.13 219.504L1758.27 198.669Z" fill="#130E50"/>
<path d="M1752.71 226.689L1750.54 226.258L1746.4 247.093L1748.56 247.524L1752.71 226.689Z" fill="#130E50"/>
<g clip-path="url(#clip0_139_20699)">
<path d="M1788.82 442.12L1396.4 489.616L1422.67 706.419L1815.09 658.923L1788.82 442.12Z" fill="#130E50"/>
<path d="M1783.51 448.786L1403.15 494.823L1425.11 676.056L1805.47 630.019L1783.51 448.786Z" fill="#3F6CF4"/>
<path d="M1419.94 683.859L1812.38 636.363" stroke="white" stroke-width="0.75" stroke-miterlimit="10"/>
<path d="M1671.33 676.331L1566.46 689.024L1568.63 706.93L1673.5 694.237L1671.33 676.331Z" fill="#130E50"/>
<path d="M1698.63 691.192L1543.47 709.972L1544.39 717.536L1699.55 698.756L1698.63 691.192Z" fill="#130E50"/>
<path d="M1561.24 689.665L1676.56 675.718" stroke="white" stroke-width="0.75" stroke-miterlimit="10"/>
<path d="M1563.41 707.568L1678.72 693.62" stroke="white" stroke-width="0.75" stroke-miterlimit="10"/>
<mask id="mask0_139_20699" style="mask-type:luminance" maskUnits="userSpaceOnUse" x="1396" y="428" width="417" height="269">
<path d="M1768.7 428.147L1396.37 519.599L1439.88 696.525L1812.2 605.074L1768.7 428.147Z" fill="white"/>
</mask>
<g mask="url(#mask0_139_20699)">
<path d="M1783.67 448.873L1403.02 494.932L1424.93 675.804L1805.58 629.745L1783.67 448.873Z" fill="#3F6CF4"/>
</g>
<mask id="mask1_139_20699" style="mask-type:luminance" maskUnits="userSpaceOnUse" x="1403" y="448" width="403" height="228">
<path d="M1783.67 448.874L1403.02 494.946L1424.93 675.804L1805.58 629.731L1783.67 448.874Z" fill="white"/>
</mask>
<g mask="url(#mask1_139_20699)">
<path d="M1487.46 552.428L1613.33 466.581" stroke="#92D1F8" stroke-width="0.75" stroke-miterlimit="10"/>
</g>
<mask id="mask2_139_20699" style="mask-type:luminance" maskUnits="userSpaceOnUse" x="1403" y="448" width="403" height="228">
<path d="M1783.67 448.874L1403.02 494.946L1424.93 675.804L1805.58 629.731L1783.67 448.874Z" fill="white"/>
</mask>
<g mask="url(#mask2_139_20699)">
<path d="M1376.44 603.009L1502.32 517.182" stroke="#92D1F8" stroke-width="0.75" stroke-miterlimit="10"/>
</g>
<mask id="mask3_139_20699" style="mask-type:luminance" maskUnits="userSpaceOnUse" x="1403" y="448" width="403" height="228">
<path d="M1783.67 448.874L1403.02 494.946L1424.93 675.804L1805.58 629.731L1783.67 448.874Z" fill="white"/>
</mask>
<g mask="url(#mask3_139_20699)">
<path d="M1557.62 659.745L1763.36 519.42" stroke="#92D1F8" stroke-width="0.75" stroke-miterlimit="10"/>
</g>
<mask id="mask4_139_20699" style="mask-type:luminance" maskUnits="userSpaceOnUse" x="1403" y="448" width="403" height="228">
<path d="M1783.67 448.874L1403.02 494.946L1424.93 675.804L1805.58 629.731L1783.67 448.874Z" fill="white"/>
</mask>
<g mask="url(#mask4_139_20699)">
<path d="M1650.83 571.815L1788.99 477.596" stroke="#92D1F8" stroke-width="0.75" stroke-miterlimit="10"/>
</g>
</g>
<defs>
<clipPath id="clip0_139_20699">
<rect width="442.105" height="286.862" fill="white" transform="translate(1373 441)"/>
</clipPath>
</defs>
</svg>
