<svg width="148" height="134" viewBox="0 0 148 134" fill="none" xmlns="http://www.w3.org/2000/svg">
<path d="M28.2921 114.861C27.1545 112.581 26.1346 110.704 25.2537 108.355C24.3727 106.006 23.1981 102.775 23.1981 102.775C22.9045 101.601 22.5413 100.562 22.3172 100.133C22.0931 99.7035 21.9014 98.9027 21.677 98.4779L21.6769 98.4777C21.2357 97.6423 20.7967 96.8111 20.3704 95.9672C19.8721 94.8428 19.3025 93.7509 18.665 92.6984C18.1195 91.8949 17.3241 91.5578 16.4965 91.207L16.4964 91.207C16.2387 91.0977 15.9778 90.9871 15.7204 90.8607C14.8487 90.4261 14.1157 89.7587 13.6031 88.9332C12.559 87.2754 12.3277 85.2256 12.2482 83.3197C12.1832 81.5216 12.1182 79.4035 13.2671 77.9255C13.5633 77.5594 13.9349 77.2609 14.3569 77.05C14.7788 76.8391 15.2413 76.7207 15.7132 76.7028C16.682 76.6239 17.6708 76.6404 18.6525 76.6569C19.0584 76.6636 19.463 76.6704 19.8646 76.6704L123.555 76.3504H127.859C127.984 76.35 128.111 76.3486 128.239 76.3471C129.31 76.3353 130.445 76.3227 131.378 76.9042C132.935 77.8679 133.235 79.835 133.152 81.5144C133.065 82.5937 132.902 83.6656 132.664 84.7221C132.477 86.0049 132.219 87.2762 131.891 88.5305C131.773 89.0064 131.521 89.4389 131.164 89.7772C130.808 90.1155 130.362 90.3454 129.878 90.44C129.515 90.5135 129.153 90.5473 128.794 90.5808C128.133 90.6424 127.481 90.7032 126.847 91.0082C124.986 91.8964 123.816 93.788 122.873 95.5249C121.755 97.5725 120.74 99.6769 119.727 101.777C119.571 102.1 119.416 102.423 119.26 102.746C118.4 104.526 117.551 106.311 116.702 108.095C115.151 111.358 113.599 114.621 111.983 117.85L111.759 118.296C109.855 122.104 107.934 125.943 104.728 128.854C101.839 131.454 98.2058 133.088 94.3368 133.529C91.8513 133.834 89.3016 133.788 86.7967 133.742L86.3375 133.734C85.1779 133.711 84.0183 133.679 82.8587 133.646H82.8587C81.2218 133.599 79.5849 133.553 77.948 133.536C74.4323 133.503 70.9179 133.63 67.4032 133.758C65.2399 133.837 63.0764 133.916 60.9124 133.957C56.2841 134.043 51.598 134.086 47.0383 133.176C44.8021 132.786 42.6034 132.206 40.4662 131.443C38.8996 130.863 37.4818 129.944 36.3148 128.753C35.0889 127.384 34.0335 125.872 33.1714 124.251C32.326 122.791 31.5383 121.302 30.776 119.802C29.9386 118.16 29.1153 116.51 28.2921 114.861Z" fill="black"/>
<path d="M25.7719 90.8893C37.9949 90.9181 50.2142 90.9217 62.4336 90.9756L98.9073 91.1518C105.772 91.1842 112.637 91.1914 119.48 91.0475C119.604 91.0369 119.72 90.9803 119.805 90.8887C119.889 90.7971 119.936 90.6774 119.936 90.5531C119.936 90.4287 119.889 90.309 119.805 90.2174C119.72 90.1258 119.604 90.0692 119.48 90.0586C107.264 89.8033 95.0377 89.9759 82.822 90.0334C70.6629 90.0909 58.499 90.1365 46.3302 90.1701L25.7539 90.2132C25.6638 90.2132 25.5774 90.2488 25.5137 90.3122C25.45 90.3756 25.4142 90.4616 25.4142 90.5513C25.4142 90.6409 25.45 90.7269 25.5137 90.7903C25.5774 90.8537 25.6638 90.8893 25.7539 90.8893H25.7719Z" fill="white"/>
<path d="M48.5641 109.371C48.1704 107.368 47.7769 105.367 47.4287 103.354L47.425 103.361C47.4083 103.269 47.4255 103.188 47.4635 103.123C47.4637 103.115 47.4641 103.107 47.4648 103.099C47.4651 102.764 47.5491 102.435 47.7094 102.141C47.8696 101.847 48.101 101.598 48.3825 101.416C48.4503 101.378 48.5254 101.357 48.6026 101.352C48.6798 101.348 48.757 101.361 48.8286 101.39C48.9003 101.418 48.9645 101.463 49.0167 101.52C49.0689 101.576 49.1078 101.644 49.1304 101.718C49.9514 104.01 50.6106 106.357 51.1031 108.741C51.5401 110.858 51.8586 112.997 52.057 115.149C52.0687 115.269 52.0888 115.408 52.1106 115.559C52.2172 116.295 52.3641 117.31 51.7643 117.728C50.9911 118.278 50.3263 117.159 50.0915 116.573C49.7886 115.818 49.6439 115 49.5012 114.192C49.4583 113.95 49.4156 113.708 49.3689 113.47L48.7185 110.158C48.6671 109.896 48.6156 109.633 48.5641 109.371Z" fill="white"/>
<path d="M58.4638 109.371C58.0701 107.368 57.6766 105.367 57.3284 103.354V103.361C57.3121 103.272 57.3277 103.193 57.3633 103.129C57.3634 103.119 57.3638 103.109 57.3645 103.099C57.3655 102.764 57.4503 102.435 57.6111 102.141C57.772 101.847 58.0039 101.598 58.2858 101.416C58.3533 101.378 58.4283 101.357 58.5052 101.352C58.5822 101.348 58.6591 101.361 58.7305 101.39C58.8018 101.419 58.8658 101.463 58.9176 101.52C58.9695 101.577 59.0079 101.644 59.0302 101.718C59.8527 104.01 60.5119 106.357 61.0029 108.741C61.4393 110.858 61.7589 112.997 61.9603 115.149C61.972 115.269 61.9921 115.408 62.014 115.559C62.1205 116.295 62.2674 117.31 61.6677 117.728C60.8909 118.278 60.2261 117.159 59.9912 116.573C59.6884 115.818 59.5436 115 59.4009 114.192C59.358 113.95 59.3153 113.708 59.2686 113.47L58.6183 110.158C58.5668 109.896 58.5153 109.633 58.4638 109.371Z" fill="white"/>
<path d="M68.3236 109.169C67.9425 107.234 67.5616 105.299 67.2281 103.354H67.2426C67.2285 103.28 67.2365 103.213 67.2597 103.156C67.2588 103.137 67.2591 103.118 67.2607 103.099C67.2607 102.764 67.345 102.434 67.506 102.14C67.6669 101.846 67.8993 101.597 68.182 101.416C68.2495 101.378 68.3244 101.357 68.4014 101.352C68.4783 101.348 68.5553 101.361 68.6266 101.39C68.698 101.419 68.7619 101.463 68.8138 101.52C68.8656 101.577 68.9041 101.644 68.9263 101.718C69.7473 104.01 70.4064 106.357 70.899 108.741C71.336 110.858 71.6545 112.997 71.8529 115.149C71.8645 115.269 71.8847 115.408 71.9065 115.559C72.0131 116.295 72.16 117.31 71.5602 117.728C70.787 118.278 70.1222 117.159 69.8874 116.573C69.5506 115.563 69.3087 114.524 69.1648 113.47L68.518 110.158C68.4534 109.828 68.3885 109.499 68.3236 109.169Z" fill="white"/>
<path d="M78.2595 109.372C77.8659 107.369 77.4724 105.367 77.1242 103.355L77.1531 103.38C77.1392 103.303 77.1486 103.235 77.1739 103.176C77.1729 103.157 77.1732 103.137 77.1748 103.117C77.1687 102.782 77.2476 102.45 77.4042 102.153C77.5608 101.855 77.79 101.602 78.0708 101.416C78.1382 101.379 78.2132 101.356 78.2904 101.352C78.3675 101.347 78.4447 101.359 78.5163 101.388C78.5878 101.417 78.6519 101.462 78.7036 101.519C78.7554 101.576 78.7935 101.644 78.8151 101.718C79.6377 104.01 80.2969 106.357 80.7878 108.742C81.2302 110.858 81.5523 112.997 81.7525 115.15C81.7642 115.27 81.7843 115.409 81.8062 115.56C81.9127 116.296 82.0596 117.31 81.4599 117.728C80.6867 118.279 80.0219 117.16 79.787 116.574C79.4842 115.819 79.3394 115 79.1967 114.193C79.1538 113.95 79.1112 113.709 79.0644 113.471L78.4141 110.158C78.3626 109.896 78.3111 109.634 78.2595 109.372Z" fill="white"/>
<path d="M88.1195 109.17C87.7384 107.234 87.3574 105.299 87.0239 103.354L87.0348 103.361C87.0175 103.271 87.0332 103.191 87.0695 103.126C87.0697 103.117 87.0701 103.108 87.0709 103.099C87.0719 102.764 87.1566 102.435 87.3175 102.141C87.4784 101.847 87.7103 101.598 87.9922 101.416C88.0597 101.378 88.1347 101.357 88.2116 101.352C88.2885 101.348 88.3655 101.361 88.4368 101.39C88.5082 101.419 88.5722 101.463 88.624 101.52C88.6759 101.577 88.7143 101.644 88.7365 101.718C89.5538 104.01 90.2093 106.357 90.6984 108.741C91.1348 110.858 91.4545 112.997 91.6559 115.149C91.6675 115.269 91.6877 115.408 91.7095 115.559C91.816 116.295 91.963 117.31 91.3632 117.728C90.5864 118.278 89.9216 117.159 89.6867 116.573C89.3839 115.818 89.2391 114.999 89.0964 114.192C89.0536 113.95 89.0109 113.708 88.9641 113.47L88.3138 110.158C88.2492 109.828 88.1843 109.499 88.1195 109.17Z" fill="white"/>
<path d="M41.1745 74.6245C39.144 68.197 37.3687 61.7 35.8489 55.1334C35.5237 53.7309 34.9998 52.1415 35.2961 50.6886C35.5598 49.3796 36.5787 48.5705 37.7566 48.067C39.1886 47.5152 40.69 47.1618 42.2187 47.017C43.859 46.8048 45.5101 46.7257 47.1613 46.6574C50.5985 46.5015 54.0382 46.4152 57.4802 46.3984C60.3489 46.3984 63.42 46.1791 66.2057 46.9882C67.4962 47.338 68.665 48.0348 69.5839 49.002C70.4458 50.0063 71.12 51.156 71.5747 52.3968C72.7851 55.4139 73.7425 58.5462 74.8264 61.6137C77.0954 68.1107 79.3668 74.6065 81.6406 81.1011C81.9176 81.8923 82.1946 82.6834 82.4716 83.4746L82.7896 82.6978C82.465 82.9213 82.2275 83.2491 82.1169 83.6263C82.0064 84.0035 82.0296 84.407 82.1826 84.7692C82.3423 85.1386 82.64 85.4317 83.0128 85.5867C83.3856 85.7417 83.8044 85.7464 84.1806 85.5999C84.5693 85.473 84.8946 85.2032 85.09 84.8456C85.2854 84.488 85.3362 84.0696 85.232 83.6759C85.0982 83.2584 84.8098 82.9071 84.4253 82.6934C84.0409 82.4797 83.5891 82.4195 83.1618 82.5252C83.0374 82.5702 82.9279 82.6484 82.8451 82.7511C82.7623 82.8539 82.7095 82.9773 82.6923 83.1078C82.6752 83.2384 82.6944 83.3712 82.7479 83.4917C82.8013 83.6121 82.887 83.7157 82.9955 83.791C83.2954 83.9996 82.9666 84.6829 82.6342 84.6757L83.3171 85.1719C83.2728 85.045 83.2567 84.91 83.2701 84.7764C83.2907 84.7068 83.3148 84.6384 83.3424 84.5714C83.3424 84.5714 83.234 84.6181 83.2159 84.6037C83.1923 84.5541 83.1819 84.4993 83.1857 84.4445C83.1895 84.3897 83.2074 84.3368 83.2376 84.2909L84.3938 84.5965L84.177 83.8773C83.9277 83.0322 82.6053 83.3882 82.8474 84.2369L83.0606 84.9562C83.0942 85.0707 83.157 85.1747 83.2427 85.2581C83.3285 85.3414 83.4345 85.4014 83.5504 85.4321C83.6662 85.4628 83.7881 85.4633 83.9042 85.4335C84.0203 85.4037 84.1267 85.3445 84.2131 85.2618C85.0514 84.5426 84.2457 83.2192 83.2701 83.2084C82.0598 83.2084 81.7129 84.6001 81.9694 85.5387C82.0134 85.6833 82.102 85.8104 82.2226 85.9021C82.3432 85.9938 82.4898 86.0453 82.6415 86.0494C84.448 86.0746 85.1164 83.5573 83.7001 82.5791L83.5339 83.8414C83.8374 83.7658 84.0722 84.1614 83.7182 84.2909C83.6634 84.3083 83.6043 84.306 83.551 84.2845C83.4978 84.263 83.4538 84.2235 83.4268 84.1731C83.3997 84.1226 83.3912 84.0643 83.4029 84.0083C83.4145 83.9523 83.4456 83.9021 83.4905 83.8665C83.6178 83.7866 83.7169 83.6692 83.7739 83.5306C83.8309 83.392 83.843 83.2391 83.8085 83.0934C81.4311 76.347 79.0525 69.6007 76.6727 62.8543C75.5165 59.5818 74.3965 56.2914 73.197 53.0333C72.2214 50.3758 70.9099 47.729 68.2507 46.402C65.5915 45.0751 62.5854 45.1182 59.7203 45.1074C56.1289 45.1074 52.5387 45.171 48.9498 45.298C45.5174 45.4311 41.9874 45.4958 38.6598 46.438C37.3916 46.7976 36.0729 47.337 35.1552 48.3188C34.111 49.4408 33.8545 50.9332 34.0496 52.4148C34.3263 54.0412 34.7028 55.6493 35.1768 57.23C35.6176 58.9274 36.0777 60.6223 36.557 62.3149C37.5036 65.6713 38.5201 69.0061 39.6064 72.3194C39.881 73.1537 40.158 73.9928 40.4374 74.8366C40.5928 75.2934 41.319 75.1028 41.16 74.6353L41.1745 74.6245Z" fill="black"/>
<path d="M88.4511 47.305C91.5397 48.1216 94.6917 48.6785 97.8739 48.97C99.0807 49.0779 100.446 48.97 100.978 47.6898C101.16 47.1017 101.296 46.5006 101.386 45.8917C101.515 45.3622 101.699 44.8476 101.935 44.3562C102.965 42.2417 104.789 40.6306 106.632 39.2173C108.612 37.6926 110.715 36.3404 112.594 34.6682C116.669 31.0721 119.888 26.2784 120.777 20.8519C121.255 18.088 121.094 15.2521 120.307 12.5592C119.534 10.0465 118.152 7.76177 116.282 5.90636C112.561 2.19515 107.365 0.296393 102.163 0.0266826C99.0709 -0.0983502 95.977 0.21649 92.9746 0.961677C91.452 1.32504 89.9494 1.76676 88.4728 2.28505C87.3203 2.66818 86.214 3.17714 85.1741 3.80262C83.2736 4.98575 81.5285 6.87012 81.8501 9.26515C82.0488 10.7036 82.934 12.027 83.6819 13.2604C84.4743 14.5838 85.3102 15.8784 86.1893 17.1443C87.0685 18.4101 87.9718 19.6256 88.8991 20.7907C89.7518 21.8696 90.6189 23.139 91.8221 23.8618C93.0252 24.5847 94.4993 24.4588 95.7964 23.9266C97.0935 23.3943 98.2172 22.4414 99.5215 21.8696C100.54 21.4237 101.776 21.2906 102.701 22.0278C103.839 22.934 102.986 24.2934 102.242 25.1565C100.551 27.1092 98.228 28.3426 96.1216 29.7883C95.0252 30.5177 94.0103 31.3616 93.0939 32.3056C92.1788 33.2976 91.3845 34.3936 90.7273 35.5709C90.0556 36.787 89.4654 38.046 88.9605 39.3396C88.433 40.645 87.9019 41.972 87.4973 43.3241C87.0926 44.6763 86.995 45.9781 87.5804 47.3122C87.8333 47.8804 88.6643 47.3877 88.4222 46.8232C87.8658 45.5537 88.4222 43.9462 88.8558 42.7128C89.2893 41.4793 89.759 40.2242 90.2721 39.0052C91.2657 36.5886 92.5628 34.2007 94.5174 32.3919C96.3492 30.6981 98.6038 29.5617 100.598 28.0765C101.611 27.3599 102.525 26.5135 103.315 25.5592C104.081 24.5919 104.699 23.3548 104.143 22.1321C103.705 21.1719 102.668 20.593 101.653 20.4383C100.403 20.2513 99.2108 20.7188 98.1377 21.323C96.9418 21.9955 95.8326 22.8549 94.4524 23.121C93.0722 23.3872 92.0822 22.6212 91.2259 21.6394C89.3009 19.3963 87.5428 17.0166 85.9653 14.5191C85.1849 13.3072 84.4225 12.0701 83.7397 10.7971C83.1905 9.7686 82.8617 8.63942 83.3206 7.52821C84.1227 5.56832 86.435 4.39958 88.3102 3.70912C91.0964 2.66599 93.99 1.93272 96.9382 1.52267C102.228 0.825024 107.727 1.52267 112.315 4.36002C114.354 5.60202 116.094 7.27394 117.413 9.25795C118.838 11.4683 119.663 14.008 119.809 16.63C120.127 21.9955 117.934 27.1056 114.465 31.1332C112.776 33.0395 110.876 34.749 108.8 36.2289C106.932 37.6063 104.999 38.9404 103.38 40.5982C101.823 42.1805 100.598 44.0865 100.24 46.3017C100.154 46.8519 100.114 47.5532 99.5504 47.8373C98.9868 48.1213 98.3653 48.0279 97.8017 47.9883C96.2264 47.8768 94.6547 47.697 93.1047 47.4453C91.6198 47.2043 90.1456 46.8951 88.6859 46.5319C88.5869 46.5148 88.485 46.5351 88.4001 46.5888C88.3153 46.6425 88.2535 46.7257 88.2269 46.8222C88.2003 46.9187 88.2107 47.0216 88.2562 47.1108C88.3016 47.2001 88.3789 47.2693 88.4728 47.305H88.4511Z" fill="#FF60C3"/>
<path d="M99.2542 53.5559C97.6086 53.2892 95.9485 53.1211 94.2827 53.0524C92.7315 52.9402 91.173 52.9776 89.629 53.1639C88.9876 53.231 88.3672 53.4304 87.8073 53.7492C87.2475 54.0681 86.7605 54.4995 86.3773 55.0159C85.698 55.9976 85.4993 57.2455 85.4704 58.4106C85.462 59.0109 85.4874 59.6112 85.5463 60.2087C85.5582 60.8918 85.6953 61.5669 85.951 62.201C86.2776 62.7634 86.7992 63.1879 87.4179 63.3949C88.1378 63.6916 88.8876 63.911 89.6543 64.0494C91.1825 64.2972 92.7343 64.3696 94.2791 64.2651C95.7532 64.1896 97.3212 64.1141 98.5894 63.2654C99.785 62.4395 100.642 61.2127 101.003 59.8095C101.455 58.1194 101.151 56.3105 100.555 54.6958C100.32 54.0593 99.3084 54.3182 99.5216 54.9799C100.269 57.2815 100.244 60.1116 98.3509 61.8737C97.4224 62.7296 96.2265 62.9274 95.0089 63.0281C93.6533 63.1635 92.2883 63.1803 90.9298 63.0784C90.2819 63.021 89.6401 62.9091 89.0112 62.744C88.3658 62.6302 87.7509 62.3854 87.2047 62.0247C86.7892 61.6831 86.7458 61.0898 86.6917 60.5863C86.6302 60.0325 86.5832 59.4715 86.5688 58.9141C86.4869 57.8829 86.6671 56.8478 87.0927 55.9041C87.348 55.4424 87.7055 55.0446 88.138 54.7405C88.5705 54.4365 89.0668 54.2343 89.5893 54.1492C91.067 53.8292 92.6676 53.8759 94.1743 53.8939C95.8327 53.9119 97.4947 54.0162 99.1422 54.1924C99.5035 54.2319 99.6047 53.599 99.2325 53.5379L99.2542 53.5559Z" fill="#FF60C3"/>
<path d="M9.91064 7.2341C6.98076 8.30788 4.48211 10.3025 2.79294 12.916C0.867182 15.8181 0.0108855 19.3135 4.63387e-05 22.7658C-0.00358464 24.5915 0.206182 26.4113 0.625108 28.1888C0.967946 29.8011 1.59551 31.3401 2.4786 32.7343C4.15867 35.2516 7.45016 37.1359 10.514 35.9708C13.2563 34.9279 14.7088 31.116 12.5662 28.8181C12.4657 28.7206 12.3309 28.666 12.1905 28.666C12.0501 28.666 11.9153 28.7206 11.8147 28.8181C9.49153 31.0585 9.82754 34.5719 10.7055 37.3841C11.6016 40.261 13.0684 43.2601 15.3085 45.3315C16.537 46.5036 18.1064 47.2588 19.7923 47.4892C19.9361 47.4892 20.0739 47.4324 20.1756 47.3312C20.2772 47.23 20.3343 47.0928 20.3343 46.9498C20.3343 46.8067 20.2772 46.6695 20.1756 46.5684C20.0739 46.4672 19.9361 46.4104 19.7923 46.4104C17.0139 46.0507 15.0231 43.778 13.6935 41.4944C12.3242 39.1426 11.1644 36.3448 11.1066 33.583C11.0777 32.0798 11.4679 30.609 12.5518 29.5337H11.8147C13.39 31.2059 12.2555 34.1116 10.3045 34.9279C7.56578 36.0751 4.60669 34.2446 3.1687 31.9647C1.5356 29.3791 0.982802 26.0563 0.93222 23.0535C0.828016 19.8768 1.59759 16.7321 3.15786 13.9589C4.72019 11.2367 7.18748 9.14215 10.1347 8.03604C10.6369 7.85623 10.4237 7.05429 9.91064 7.2341Z" fill="#00E398"/>
<path d="M32.3513 19.4219C34.5938 24.4709 36.5882 29.6181 38.3345 34.8637C38.4971 35.3456 39.2703 35.137 39.1041 34.6515C37.2976 29.3772 35.2394 24.1892 32.9294 19.0874C32.7524 18.6955 32.1779 19.0335 32.3513 19.4219Z" fill="black"/>
<path d="M53.9248 15.4875L53.8815 32.6339C53.8815 32.7326 53.9209 32.8272 53.991 32.897C54.0611 32.9668 54.1562 33.0061 54.2554 33.0061C54.3546 33.0061 54.4497 32.9668 54.5198 32.897C54.59 32.8272 54.6294 32.7326 54.6294 32.6339L54.586 15.4839C54.5774 15.4026 54.5389 15.3273 54.4779 15.2725C54.4168 15.2178 54.3376 15.1875 54.2554 15.1875C54.1732 15.1875 54.094 15.2178 54.0329 15.2725C53.9719 15.3273 53.9334 15.4026 53.9248 15.4839V15.4875Z" fill="black"/>
<path d="M74.7612 17.1703L70.3388 31.8101C70.3213 31.908 70.3411 32.0088 70.3943 32.0929C70.4475 32.177 70.5304 32.2383 70.6266 32.2648C70.7228 32.2913 70.8255 32.2812 70.9146 32.2363C71.0037 32.1915 71.0728 32.1152 71.1084 32.0223L75.444 17.3573C75.4448 17.2782 75.4194 17.201 75.3716 17.1378C75.3239 17.0745 75.2566 17.0287 75.18 17.0074C75.1035 16.9861 75.022 16.9905 74.9483 17.02C74.8745 17.0494 74.8125 17.1022 74.772 17.1703H74.7612Z" fill="black"/>
<path d="M77.6591 39.6249C78.843 38.9888 80.1155 38.5319 81.4347 38.2692C81.5367 38.2415 81.6236 38.1746 81.6761 38.0833C81.7286 37.9919 81.7425 37.8835 81.7147 37.7819C81.6869 37.6803 81.6197 37.5939 81.5279 37.5416C81.4361 37.4894 81.3272 37.4755 81.2252 37.5032C79.8358 37.7831 78.4963 38.2679 77.2508 38.9417C76.8064 39.1826 77.2038 39.8587 77.6482 39.6177L77.6591 39.6249Z" fill="#115EFB"/>
<path d="M141.072 16.7421C143.406 17.6663 144.858 19.9498 145.631 22.2298C146.317 24.3323 146.563 26.5524 146.354 28.7531C145.944 33.13 144.009 37.2264 140.884 40.3327C139.344 41.8816 137.51 43.1112 135.49 43.9504C134.474 44.3604 133.267 44.7919 132.162 44.5258C131.898 44.4775 131.65 44.3664 131.439 44.2021C131.335 44.0071 131.291 43.7856 131.313 43.5656C131.328 43.0445 131.486 42.5374 131.768 42.0984C132.054 41.6375 132.439 41.245 132.895 40.9486C133.351 40.6521 133.867 40.4591 134.406 40.383C134.962 40.3414 135.521 40.4131 136.048 40.5937C136.575 40.7742 137.06 41.0598 137.473 41.4331C139.561 43.2312 139.905 46.0505 139.374 48.6254C138.842 51.2002 137.715 53.8685 135.966 55.8572C134.304 57.7488 131.837 59.0649 129.253 58.7089C128.644 58.6248 128.054 58.4375 127.508 58.1551L127.729 58.993C128.451 57.8387 129.34 56.6232 130.619 56.0514C131.631 55.6055 133.04 55.6342 133.802 56.5261C134.608 57.4719 134.301 58.9067 133.802 59.9244C133.188 61.133 132.327 62.2001 131.273 63.0566C130.073 64.0695 128.683 64.8358 127.183 65.3114C126.46 65.5416 126.768 66.6492 127.494 66.437C130.576 65.5308 133.679 63.2976 134.991 60.2984C135.605 58.8995 135.836 57.1698 134.857 55.8752C133.921 54.6345 132.245 54.3073 130.789 54.6884C128.907 55.1811 127.627 56.8066 126.641 58.3745C126.56 58.5151 126.538 58.6816 126.579 58.8382C126.621 58.9949 126.722 59.1292 126.862 59.2124C129.47 60.5537 132.711 60.0143 135.027 58.3169C137.466 56.5189 138.962 53.8002 139.919 50.9952C140.905 48.1183 141.296 44.6516 139.478 42.0049C137.997 39.8472 135.186 38.4411 132.682 39.7789C132.12 40.0735 131.624 40.4779 131.223 40.9679C130.822 41.4579 130.524 42.0234 130.348 42.6306C130.178 43.2413 130.178 43.8864 130.348 44.497C130.529 45.0868 131.295 45.4068 131.855 45.5363C133.163 45.8384 134.521 45.4284 135.724 44.9321C136.87 44.464 137.961 43.8719 138.976 43.1664C143.081 40.2734 145.918 35.9272 146.907 31.0187C147.403 28.6094 147.393 26.1239 146.878 23.7186C146.314 21.1761 145.111 18.5689 142.969 16.9686C142.447 16.5845 141.876 16.2724 141.27 16.0408C140.833 15.8718 140.649 16.5695 141.075 16.76L141.072 16.7421Z" fill="#FFEC41"/>
<circle cx="113.054" cy="89.5629" r="25.5473" fill="#FF60C3"/>
<path d="M119.307 85.9158C119.338 80.1175 117.854 77.2105 114.858 77.1948C112.838 77.1842 111.156 77.9735 109.812 79.5626C109.222 80.2436 108.65 80.5827 108.097 80.5797C107.771 80.578 107.69 80.431 107.855 80.1387C109.857 77.2825 112.454 75.8628 115.646 75.8796C118.871 75.8965 120.979 77.6829 121.97 81.2389C122.354 82.6416 122.541 84.3366 122.53 86.3236C122.52 88.3107 122.067 90.7026 121.173 93.4994C119.715 98.1501 117.564 101.543 114.719 103.678C113.116 104.908 111.451 105.518 109.725 105.509C108.031 105.5 106.584 105.085 105.383 104.264C104.214 103.411 103.389 102.316 102.908 100.977C102.298 99.2478 101.997 97.5686 102.006 95.9398C102.015 94.2785 102.218 92.6834 102.617 91.1544C103.016 89.6254 103.562 88.1298 104.253 86.6675C104.945 85.1727 105.848 83.8744 106.961 82.7727C108.075 81.6709 109.267 80.9442 110.54 80.5926C110.736 80.5284 110.882 80.5781 110.979 80.7415C111.108 80.905 111.156 81.1007 111.122 81.3286C111.088 81.5564 111.006 81.6863 110.876 81.7182C109.832 82.0059 108.866 82.9781 107.978 84.6348C106.235 87.7529 105.35 91.8691 105.323 96.9834C105.312 99.0356 105.678 100.797 106.419 102.266C107.161 103.704 108.232 104.426 109.633 104.433C112.402 104.448 114.759 102.196 116.705 97.6783C118.419 93.7456 119.287 89.8248 119.307 85.9158Z" fill="white"/>
</svg>
