<svg width="76" height="51" viewBox="0 0 76 51" fill="none" xmlns="http://www.w3.org/2000/svg">
<path d="M36 51C47.598 51 57 41.598 57 30C57 18.402 47.598 9 36 9C24.402 9 15 18.402 15 30C15 41.598 24.402 51 36 51Z" fill="#FF60C3"/>
<path d="M31.2568 26.4599C31.2368 27.8474 30.7932 29.841 29.2888 30.3282C27.9245 30.7632 26.9402 29.481 26.5602 28.3363C26.0854 26.8785 26.1722 25.295 26.8034 23.8984C27.3165 22.8109 28.5325 21.9409 29.7182 22.704C30.8808 23.4524 31.2432 25.0408 31.2568 26.3399C31.258 26.3649 31.2581 26.3905 31.2573 26.4169C31.2574 26.4314 31.2573 26.4458 31.2568 26.4599Z" fill="black"/>
<path d="M46.231 26.1987C46.2496 26.2655 46.2591 26.3382 46.2577 26.4169C46.244 27.8059 45.7195 29.8359 43.8953 30.3282C42.258 30.7632 41.0768 29.481 40.6207 28.3363C40.0509 26.8785 40.155 25.295 40.9126 23.8984C41.5329 22.8109 43.0105 21.9409 44.4106 22.704C45.7341 23.4255 46.1856 24.9277 46.231 26.1987Z" fill="black"/>
<path d="M29.1147 35.5769C31.1173 37.0675 33.4814 37.907 35.9213 37.9939C37.1489 38.0335 38.3752 37.8799 39.5608 37.5379C40.1324 37.3749 40.6919 37.1667 41.2346 36.9152C41.7625 36.6705 42.4987 36.3925 42.8668 35.9068C42.9398 35.8218 42.9854 35.7141 42.9971 35.5994C43.0087 35.4847 42.9857 35.3691 42.9314 35.2694C42.8771 35.1696 42.7944 35.091 42.6953 35.045C42.5963 34.9989 42.486 34.9879 42.3806 35.0135C41.8319 35.1321 41.311 35.5658 40.7936 35.7956C40.2932 36.019 39.7806 36.2096 39.2586 36.3665C38.1701 36.681 37.0489 36.8491 35.9213 36.867C33.6287 36.931 31.3635 36.3233 29.3717 35.1098C29.087 34.9319 28.8508 35.3805 29.1147 35.5769Z" fill="black"/>
<path d="M28.6923 36.1569C28.7753 36.1078 28.8528 36.0547 28.9232 35.9987L29.0615 35.878C29.1716 35.7798 29.2751 35.68 29.3715 35.579C29.5477 35.3899 29.6963 35.1976 29.8144 35.0059C29.8324 34.9696 29.8391 34.9347 29.8342 34.9034C29.8293 34.8721 29.8129 34.8449 29.7859 34.8236C29.7351 34.7814 29.6483 34.763 29.5437 34.7722C29.4363 34.7833 29.3201 34.8218 29.2197 34.8796C29.1192 34.9373 29.0423 35.0098 29.0052 35.0816C28.9662 35.1532 28.9212 35.2243 28.8714 35.2974L28.9174 35.2288C28.7869 35.4252 28.6202 35.6212 28.4216 35.8116L28.4863 35.7472C28.4014 35.8316 28.3144 35.9109 28.2402 35.9938C28.1983 36.0436 28.1785 36.0939 28.1838 36.1372C28.1891 36.1805 28.2192 36.2145 28.2697 36.2344C28.3227 36.2518 28.3925 36.2536 28.4686 36.2397C28.5448 36.2257 28.6232 36.1967 28.6923 36.1569Z" fill="black"/>
<path d="M43 34.4237C43.0292 35.2298 43.1621 36.0155 43.3894 36.7265C43.4112 36.7891 43.44 36.8438 43.4743 36.8877C43.5085 36.9315 43.5476 36.9635 43.5892 36.9819C43.6308 37.0003 43.6742 37.0047 43.7168 36.9949C43.7594 36.985 43.8005 36.9612 43.8377 36.9246C43.8748 36.888 43.9073 36.8394 43.9333 36.7817C43.9594 36.7239 43.9784 36.6581 43.9893 36.588C44.0002 36.5179 44.0028 36.4448 43.997 36.373C43.9911 36.3011 43.9769 36.2319 43.9552 36.1694C43.8932 36.0241 43.8379 35.8709 43.7899 35.7113C43.7642 35.637 43.7422 35.5627 43.7201 35.4884C43.7075 35.4462 43.6965 35.4028 43.687 35.3584C43.6102 35.029 43.5547 34.6865 43.5217 34.337C43.5066 34.2311 43.4687 34.1384 43.4154 34.0768C43.362 34.0153 43.297 33.9893 43.233 34.004C43.1689 34.0186 43.1104 34.0729 43.0687 34.1561C43.027 34.2394 43.0051 34.3458 43.0074 34.4546L43 34.4237Z" fill="black"/>
<path d="M26.7347 20.3535C26.9193 20.1349 27.1221 19.9328 27.3409 19.7495C27.5742 19.5829 27.8337 19.4577 28.1083 19.3793C28.6435 19.2043 29.2192 19.2043 29.7544 19.3793C29.8561 19.4077 29.9648 19.3939 30.0566 19.3409C30.1483 19.2879 30.2156 19.2001 30.2436 19.0967C30.2716 18.9934 30.258 18.8829 30.2058 18.7897C30.1536 18.6966 30.0672 18.6282 29.9654 18.5998C29.2853 18.3431 28.5352 18.3542 27.8627 18.631C27.2296 18.8921 26.5198 19.3832 26.2742 20.0613C26.1745 20.338 26.5543 20.5289 26.7423 20.338L26.7347 20.3535Z" fill="black"/>
<path d="M40.8307 20.3651C41.5979 19.9596 42.4387 19.6964 43.3086 19.5893C43.6594 19.5671 44.0113 19.611 44.3443 19.7186C44.6391 19.8349 44.9092 20.0014 45.1413 20.21C45.2557 20.3134 45.4051 20.3744 45.5624 20.3821C45.7198 20.3898 45.8749 20.3436 45.9998 20.252C46.1246 20.1603 46.2111 20.0291 46.2436 19.882C46.2761 19.7349 46.2525 19.5816 46.177 19.4497C45.6348 18.6015 44.4039 18.3222 43.4171 18.4411C42.3328 18.6434 41.3145 19.0883 40.4457 19.7393C40.3587 19.788 40.2955 19.8677 40.2701 19.9608C40.2447 20.0539 40.2591 20.1529 40.3101 20.2358C40.3612 20.3188 40.4447 20.3791 40.5423 20.4033C40.6399 20.4276 40.7437 20.4138 40.8307 20.3651Z" fill="black"/>
<path d="M7.30463 6.27792C4.79056 7.67295 2.75062 9.78732 1.44656 12.3498C0.283947 14.6375 -1.06993 18.5679 1.33405 20.5368C2.54917 21.5344 4.08307 21.1856 5.28693 20.3531C5.87935 20.0032 6.33352 19.4603 6.57332 18.8154C6.66072 18.5404 6.64131 18.2426 6.51899 17.9813C6.39667 17.7199 6.1804 17.5143 5.91325 17.4053C4.69438 16.914 3.318 17.9566 2.63168 18.8679C1.81301 20.0487 1.33431 21.4316 1.24779 22.8658C1.02744 24.6077 1.475 26.3685 2.50041 27.7938C2.96027 28.4242 3.56141 28.9381 4.25567 29.2944C4.94993 29.6506 5.718 29.8393 6.49831 29.8452C6.60275 29.8452 6.70291 29.8037 6.77676 29.7299C6.85061 29.656 6.89209 29.5559 6.89209 29.4514C6.89209 29.347 6.85061 29.2468 6.77676 29.173C6.70291 29.0991 6.60275 29.0577 6.49831 29.0577C3.97056 28.9676 2.26414 26.6724 2.06912 24.3022C1.90036 22.2882 2.49292 19.1267 4.63813 18.2753C4.98691 18.1366 5.94325 17.9003 5.78948 18.5979C5.65072 19.2129 4.91565 19.663 4.40935 19.948C3.30674 20.5668 2.08412 20.4731 1.3378 19.378C0.591474 18.2828 0.752744 16.8014 1.04902 15.5563C1.31579 14.4337 1.72806 13.3506 2.27539 12.3348C3.50116 10.0334 5.35594 8.12788 7.62342 6.84047C7.69504 6.79526 7.74627 6.72397 7.76629 6.64167C7.7863 6.55937 7.77354 6.47251 7.73068 6.39946C7.68782 6.3264 7.61823 6.27288 7.53663 6.2502C7.45502 6.22752 7.36779 6.23746 7.29338 6.27792H7.30463Z" fill="#115EFB"/>
<path d="M23.8206 2.87695L24.7619 4.95465C24.7994 5.01652 24.8593 5.06157 24.9292 5.08043C24.999 5.09928 25.0734 5.09051 25.137 5.05592C25.1981 5.01778 25.2428 4.95816 25.2622 4.88876C25.2816 4.81937 25.2744 4.74522 25.242 4.68088L24.2932 2.60693C24.255 2.54575 24.1951 2.5013 24.1256 2.48251C24.056 2.46372 23.9818 2.47199 23.9181 2.50566C23.8583 2.54496 23.8149 2.60483 23.7962 2.67395C23.7776 2.74307 23.7849 2.81663 23.8168 2.8807L23.8206 2.87695Z" fill="black"/>
<path d="M34.1717 0.277529C34.2415 1.07523 34.1768 1.87897 33.9805 2.65526C33.883 3.0303 34.4793 3.19906 34.5693 2.81652C34.762 1.98475 34.8152 1.12675 34.7268 0.277529C34.7268 0.203925 34.6975 0.13333 34.6455 0.0812839C34.5935 0.0292375 34.5229 0 34.4493 0C34.3757 0 34.3051 0.0292375 34.253 0.0812839C34.201 0.13333 34.1717 0.203925 34.1717 0.277529Z" fill="black"/>
<path d="M43.7354 1.028C43.7693 1.88389 43.597 2.73539 43.2329 3.51074C43.1941 3.5818 43.1841 3.66507 43.2051 3.74328C43.226 3.8215 43.2763 3.88864 43.3454 3.93078C43.4152 3.97069 43.4979 3.98165 43.5757 3.96132C43.6535 3.94099 43.7203 3.89099 43.7617 3.82202C44.1487 2.9441 44.316 1.98511 44.2492 1.028C44.2494 0.960509 44.2239 0.895472 44.178 0.846041C44.1321 0.796611 44.069 0.766471 44.0017 0.761719C43.9337 0.762704 43.8689 0.790402 43.8212 0.838825C43.7734 0.887249 43.7467 0.952508 43.7467 1.0205L43.7354 1.028Z" fill="black"/>
<path d="M53.0825 3.52163C52.5589 4.56434 52.1623 5.66606 51.9011 6.80321C51.8073 7.212 52.4374 7.38452 52.5274 6.97572C52.7612 5.88841 53.1251 4.83321 53.6113 3.83291C53.6504 3.7623 53.661 3.67935 53.6407 3.60118C53.6205 3.52302 53.571 3.45561 53.5025 3.41288C53.4321 3.37278 53.3488 3.3617 53.2704 3.38201C53.192 3.40232 53.1246 3.45241 53.0825 3.52163Z" fill="black"/>
<path d="M72.617 14.4952C73.7758 14.5853 74.3046 15.8641 74.4659 16.8617C74.6095 18.0905 74.4605 19.3357 74.0309 20.4958C73.6251 21.6995 72.9855 22.8112 72.1488 23.7669C71.3121 24.7227 70.2948 25.5037 69.1554 26.0651L69.7629 26.3164C69.7044 26.0607 69.7396 25.7925 69.8621 25.5605C69.9846 25.3286 70.1863 25.1483 70.4305 25.0525C70.6792 24.9233 70.9601 24.869 71.239 24.8963C71.5179 24.9236 71.783 25.0313 72.0019 25.2063C72.932 25.8926 73.247 27.194 73.2395 28.2891C73.2199 29.4265 72.8774 30.535 72.2519 31.4852C71.6264 32.4354 70.7437 33.1882 69.7067 33.6559C69.3316 33.8171 69.4854 34.3497 69.8117 34.451C70.843 34.7772 71.1993 36.0674 70.9105 37.02C70.5355 38.2501 69.3316 39.0639 68.2628 39.6452C67.8127 39.889 68.2065 40.5228 68.6378 40.3165C70.063 39.664 71.5444 38.5689 71.8181 36.9112C72.0469 35.5536 71.4094 34.0459 70.0292 33.6146L70.1342 34.4134C71.1829 33.9237 72.0906 33.1765 72.7726 32.2414C73.4546 31.3062 73.8888 30.2136 74.0346 29.0654C74.2031 27.9185 74.0132 26.7475 73.4908 25.7126C72.9807 24.7563 71.9907 23.9162 70.8468 24.0549C69.7029 24.1937 68.5703 25.3076 68.9491 26.5377C68.967 26.5981 68.9982 26.6537 69.0405 26.7004C69.0828 26.7471 69.1351 26.7837 69.1934 26.8075C69.2517 26.8312 69.3147 26.8416 69.3776 26.8377C69.4405 26.8339 69.5017 26.8159 69.5567 26.7852C70.864 26.1223 72.0171 25.1916 72.9411 24.0538C73.8651 22.9159 74.5392 21.5963 74.9197 20.1808C75.3328 18.8412 75.3678 17.4136 75.021 16.0554C74.6647 14.8965 73.8733 13.8577 72.5869 13.7714C72.1219 13.7414 72.1294 14.4577 72.5869 14.4915L72.617 14.4952Z" fill="#00E398"/>
</svg>
