<svg width="20" height="20" viewBox="0 0 20 20" fill="none" xmlns="http://www.w3.org/2000/svg">
<path d="M10.9136 0.61192L13.2071 5.60209C13.3068 5.9015 13.6059 6.1011 13.9051 6.20091L19.0904 6.99933C19.9879 6.99933 20.287 7.99737 19.6887 8.59619L15.8994 12.4885C15.7 12.6881 15.6003 13.0873 15.6003 13.3867L16.4978 18.7761C16.5975 19.5746 15.7997 20.2732 15.1017 19.874L10.415 17.2791C10.1158 17.0795 9.81666 17.0795 9.51751 17.2791L4.83077 19.874C4.13275 20.2732 3.23529 19.6744 3.43472 18.7761L4.33218 13.3867C4.4319 13.0873 4.23247 12.6881 4.03303 12.4885L0.243755 8.59619C-0.254834 7.99737 0.044319 6.99933 0.842061 6.89953L6.02739 6.1011C6.32654 6.1011 6.62569 5.80169 6.72541 5.50228L9.01892 0.512116C9.51751 -0.186507 10.5147 -0.186507 10.9136 0.61192Z" fill="#FFEC41"/>
</svg>
